<svg id="aa7bae02-e79e-4d6b-a496-aba15f39787c" xmlns="http://www.w3.org/2000/svg" xmlns:xlink="http://www.w3.org/1999/xlink" viewBox="0 0 500 500"><defs><style>.cls-1,.cls-3{fill:#3f3d56;}.cls-1{opacity:0.09;}.cls-2,.cls-5{fill:#ff7300;}.cls-2{opacity:0.1;isolation:isolate;}.cls-4{fill:none;stroke:#3f3d56;stroke-linecap:round;stroke-miterlimit:10;stroke-width:7px;}.cls-6{fill:url(#linear-gradient);}.cls-7{fill:#767d9f;}.cls-8{fill:#a0616a;}.cls-9{fill:#2d293d;}</style><linearGradient id="linear-gradient" x1="5915.72" y1="166.85" x2="5994.46" y2="166.85" gradientTransform="translate(6354.94 474.55) rotate(180)" gradientUnits="userSpaceOnUse"><stop offset="0" stop-color="gray" stop-opacity="0.25"/><stop offset="0.54" stop-color="gray" stop-opacity="0.12"/><stop offset="1" stop-color="gray" stop-opacity="0.1"/></linearGradient></defs><path class="cls-1" d="M244.94,100.18C184.05,125,65.41,125.29,46.8,181.16s-27.86,154.28-4,201.44,88.72,47.25,225.69,20.67,157.92-92.09,203.29-155.41S371.81,48.47,244.94,100.18Z"/><ellipse class="cls-2" cx="418.59" cy="416.13" rx="32.18" ry="8.54"/><path class="cls-3" d="M107.61,290.32V404q-12.45-.6-24.88-1.46L79,402.22V290.32a4.43,4.43,0,0,1,4.43-4.43h19.79A4.43,4.43,0,0,1,107.61,290.32Z"/><path class="cls-3" d="M144.31,405.37v-191a4.44,4.44,0,0,1,4.44-4.44h19.79A4.43,4.43,0,0,1,173,214.4h0V405.86Z"/><path class="cls-3" d="M209.68,406V254.12a4.43,4.43,0,0,1,4.43-4.44H233.9a4.44,4.44,0,0,1,4.44,4.44h0V405.64Z"/><path class="cls-3" d="M303.7,141.49V404.13q-14.32.4-28.66.76V141.49a4.43,4.43,0,0,1,4.44-4.43h19.79a4.43,4.43,0,0,1,4.43,4.43Z"/><path class="cls-3" d="M369.06,194.29V401.94c-9.55.46-19.1.79-28.65,1.08V194.29a4.43,4.43,0,0,1,4.43-4.44h19.79a4.43,4.43,0,0,1,4.43,4.44Z"/><polyline class="cls-4" points="93.53 224.05 158.89 151.15 224.26 187.85 289.62 75.22 354.99 129.02"/><circle class="cls-5" cx="93.28" cy="224.05" r="14.08"/><circle class="cls-5" cx="158.64" cy="151.15" r="14.08"/><circle class="cls-5" cx="224.01" cy="187.85" r="14.08"/><circle class="cls-5" cx="415.07" cy="194.89" r="14.08"/><path class="cls-6" d="M360.57,203.52a4.51,4.51,0,0,0,1,2.4,8.74,8.74,0,0,0,2.8,1.69,11,11,0,0,1,5.41,6.22c1.68,4.89,1.89,10.06,4,14.78s4.63,9.24,6.47,14.07c1.05,2.75,1.88,5.6,3.42,8.09a12.34,12.34,0,0,0,2.8,3.22c-.12,1.77-.16,3.52-.15,5.29a2,2,0,0,1,1.72.91,5.3,5.3,0,0,1,.75,1.88c.69,2.85-.16,5.89.46,8.76a44.57,44.57,0,0,1-1.51,23.95c-.69,2-1.55,8.41-.82,10.34,2.73-.27,5.16,1.41,7.72,2.52a10.8,10.8,0,0,1-.36,4.52,24.79,24.79,0,0,0-.9,8.33l.12,20.75a31.67,31.67,0,0,0,.69,7.84c.75,2.87,2.33,5.8,2.28,8.77-.14,6.38,2.88,12.47,2.64,18.8-.05,1.22-.21,2.42-.33,3.63a41,41,0,0,0,.24,9.65c.92,6.37,3.34,12.63,2.73,19,0,.43-.18,1-.59,1.17.5.57,1,1.13,1.58,1.67a1.35,1.35,0,0,1-.44.45,4.43,4.43,0,0,1-1.92.51,4.11,4.11,0,0,0-2.2.71,3.13,3.13,0,0,0-.91,1.68,4.54,4.54,0,0,0,.6,3.76,4.19,4.19,0,0,0,1.7,1.28c2.33,1,5,.27,7.42-.46l9.49-2.88a3.14,3.14,0,0,0,1.54-.8,1.64,1.64,0,0,0,.38-.81c2.1.5,4.4-.12,6.54-.76l9.49-2.88a3.22,3.22,0,0,0,1.54-.8,1.84,1.84,0,0,0,.39-1.51l.21-.09c.72-.32,1.51-1,1.33-1.73-.12-.51-.63-.8-.84-1.26a1.81,1.81,0,0,1,.35-1.77c.37-.51.88-.92,1.22-1.45,1.09-1.68.35-3.89-.06-5.85-.89-4.2-.07-8.59-.63-12.84-.19-1.43-.54-2.84-.82-4.27A88.73,88.73,0,0,1,436,369.87c-.36-4.87-1.71-9.67-.94-14.49a55.58,55.58,0,0,0,.48-8.55,36.77,36.77,0,0,0-.24-5.45c-.19-1.35-.54-2.67-.69-4a36.69,36.69,0,0,1-.08-4.57,45.26,45.26,0,0,0-.94-10.12c-1-4.57-2.89-8.94-3.7-13.52l.81.19c0-3.52-3.05-11.18-4.2-14.51a4.75,4.75,0,0,1-.3-1.29,14.45,14.45,0,0,1,.32-1.72c.15-1.22-.5-2.37-.68-3.59a8.47,8.47,0,0,1,.19-2.56c.81-4.5,1.81-9,2.82-13.42a14.33,14.33,0,0,0,.45-5,6.25,6.25,0,0,1,1.5-5,5.61,5.61,0,0,0,1.12-1.4,3.52,3.52,0,0,0,.22-1.4,22.52,22.52,0,0,0-.9-6.11,15.77,15.77,0,0,0,1.46-5.44,87.09,87.09,0,0,0,1.11-12.38,21,21,0,0,0-.9-6.54,28.06,28.06,0,0,0-1.72-3.79c-2.65-5.09-5.18-10.45-8.52-15.12-1-1.41-.37-3.37-.3-5.12a14.57,14.57,0,0,0-1.58-6.08,10,10,0,0,0-1.89-3.25,3.08,3.08,0,0,0-2.21-1,3.35,3.35,0,0,0-2.36,1.45,7.72,7.72,0,0,0-1.41,5.81,11.22,11.22,0,0,0,2.56,5.5,12.56,12.56,0,0,0,2.21,2.1c.83,2.64,1.66,5.28,2.51,7.91a99,99,0,0,0,4.52,12.39,9.68,9.68,0,0,1,1.22,3.6,10.51,10.51,0,0,1-1,4,28.18,28.18,0,0,0-1.62,8.38,2.46,2.46,0,0,0-.42.23c-1.58,1-2.08,3.29-3.73,4.22a11.77,11.77,0,0,1-3.2.75,1.22,1.22,0,0,0-.3.08,6,6,0,0,1-.1-.61,1.21,1.21,0,0,1,0-.38,16.86,16.86,0,0,0,6.25-6,5.58,5.58,0,0,0,.74-1.51,5.85,5.85,0,0,0,.07-2,30.7,30.7,0,0,0-.93-6.46,10.73,10.73,0,0,0-3.36-5.47c-.83-.67-1.78-1.16-2.6-1.83-1.59-1.3-2.69-3.21-4.52-4.17a5.44,5.44,0,0,0-6.84,1.77,4.07,4.07,0,0,1-1,1.28,10.36,10.36,0,0,0-.93.5,1.91,1.91,0,0,0-.41,2,20.41,20.41,0,0,1,.58,4.32,10.55,10.55,0,0,0,0,13.66c0,.94,0,1.88,0,2.81a3.08,3.08,0,0,1,0,.53,3.58,3.58,0,0,1-1.51-1c-.57-.71-.67-1.74-1.35-2.32a3.79,3.79,0,0,0-1.65-.6,10.41,10.41,0,0,1-4-1.91,8,8,0,0,0-3-1.85,66.3,66.3,0,0,0-6.53-10,19.57,19.57,0,0,1-1.71-2.35c-1.08-1.89-1.41-4.11-2.09-6.17C378.78,217.63,374,213,372.85,207c-.42-2.18-1.8-4.07-2.74-6.07a7.78,7.78,0,0,0-2.62-3.55,4.45,4.45,0,0,0-5.29.81A6.34,6.34,0,0,0,360.57,203.52ZM420.26,407a4.42,4.42,0,0,1-1.92.5c-.33,0-.67.09-1,.16-.13-1.05-.2-2.12-.28-3.16-.26-3.42-.8-6.81-1.33-10.19s-.81-7.37-2-10.75c-1.92-5.5-3.87-11.17-3.63-17,.06-1.32.22-2.63.29-3.95.17-3.26-.29-6.59.51-9.77.35-1.44,1-2.82,1.19-4.29a19.7,19.7,0,0,0,.05-4,53,53,0,0,1,1.15-13.75,9.67,9.67,0,0,1,1.5,4.31l1.89,10.23c1.12,6.07,2.11,12.51,5.08,17.91-.41,1.94-.83,4-.14,5.88.3.8.79,1.51,1.09,2.32a17.39,17.39,0,0,1,.58,4.28c.33,3,1.58,6,.66,8.89a43.35,43.35,0,0,0-1.82,9.23,22.76,22.76,0,0,1-.31,2.6c-.16.78-.42,1.51-.56,2.3a7.48,7.48,0,0,0,.14,3.36,6.39,6.39,0,0,1,.41,1.88c0,.65-.79,1.11-1.42,1.21.19.24.39.47.59.7A2.11,2.11,0,0,1,420.26,407Z"/><path class="cls-3" d="M400.41,412.8a4,4,0,0,0-2.2.72,3.07,3.07,0,0,0-.91,1.67,4.48,4.48,0,0,0,.6,3.73,4.26,4.26,0,0,0,1.7,1.27c2.33,1,5,.27,7.42-.46l9.49-2.86a3.12,3.12,0,0,0,1.54-.79,2.1,2.1,0,0,0,0-2.45,4.71,4.71,0,0,0-2-1.6,22.48,22.48,0,0,0-9.52-1.83c-1.21,0-2.4-.29-3.22.64-.43.5-.35,1-1,1.47A4.63,4.63,0,0,1,400.41,412.8Z"/><path class="cls-3" d="M418.34,407.58a4.11,4.11,0,0,0-2.19.72,3.15,3.15,0,0,0-.92,1.67,4.45,4.45,0,0,0,.61,3.73,4.19,4.19,0,0,0,1.7,1.27c2.33,1,5,.28,7.41-.45l9.49-2.86a3.25,3.25,0,0,0,1.55-.8,2.1,2.1,0,0,0,0-2.44,4.79,4.79,0,0,0-2-1.61,22.71,22.71,0,0,0-9.53-1.83c-1.21,0-2.39-.28-3.22.65-.43.5-.35,1-1,1.46A4.27,4.27,0,0,1,418.34,407.58Z"/><path class="cls-7" d="M410.09,304.56a117,117,0,0,1,16.84-.47,3.11,3.11,0,0,1,1.09.17c1.24.5,1.43,2.12,1.55,3.44.5,5.37,2.84,10.37,4,15.63a44.72,44.72,0,0,1,.93,10.06,38.05,38.05,0,0,0,.08,4.53c.16,1.34.51,2.66.7,4a37.76,37.76,0,0,1,.24,5.42,57.27,57.27,0,0,1-.48,8.48c-.78,4.79.58,9.55.94,14.4a85.68,85.68,0,0,0,1.14,10.11c.28,1.41.62,2.81.81,4.23.57,4.23-.26,8.59.63,12.76.41,1.95,1.16,4.14.06,5.81-.34.51-.84.93-1.21,1.44a1.81,1.81,0,0,0-.36,1.77c.22.45.72.76.85,1.24.19.77-.61,1.4-1.33,1.73a13.89,13.89,0,0,1-16.17-4c.63-.11,1.4-.56,1.42-1.21a7,7,0,0,0-.41-1.87,7.49,7.49,0,0,1-.15-3.33c.15-.77.41-1.5.57-2.28a22.57,22.57,0,0,0,.3-2.59,42.23,42.23,0,0,1,1.83-9.17c.91-2.89-.34-5.82-.66-8.83a17.22,17.22,0,0,0-.59-4.25c-.3-.8-.79-1.51-1.08-2.3-.69-1.86-.28-3.92.14-5.85-3-5.37-4-11.76-5.08-17.79l-1.89-10.16a10,10,0,0,0-1.51-4.29,52.27,52.27,0,0,0-1.14,13.66,20.25,20.25,0,0,1-.05,4c-.23,1.46-.84,2.83-1.2,4.26-.78,3.15-.32,6.46-.5,9.7-.07,1.32-.24,2.62-.29,3.93-.25,5.79,1.7,11.43,3.63,16.89,1.18,3.35,1.44,7.17,2,10.68.5,3.36,1.06,6.72,1.33,10.12.24,3.11.35,6.49,2.3,8.94a16.6,16.6,0,0,1-5.69,2.72,10.53,10.53,0,0,1-7-1.36,22.05,22.05,0,0,1-5.53-4.7c.41-.14.56-.74.6-1.16.6-6.37-1.82-12.57-2.73-18.91a40.41,40.41,0,0,1-.24-9.58c.11-1.2.28-2.41.32-3.61.24-6.29-2.79-12.35-2.68-18.65.05-3-1.51-5.85-2.27-8.7a31.27,31.27,0,0,1-.69-7.8l-.13-20.61a25.46,25.46,0,0,1,.9-8.27c1.11-3.17-.16-6.81-.35-10.16A41.81,41.81,0,0,0,410.09,304.56Z"/><path class="cls-8" d="M392.17,245.33a65.46,65.46,0,0,0-7.7-12.15,19.46,19.46,0,0,1-1.71-2.34c-1.08-1.87-1.4-4.07-2.09-6.13-1.91-5.75-6.67-10.37-7.83-16.32-.43-2.16-1.8-4-2.75-6a7.63,7.63,0,0,0-2.62-3.52,4.46,4.46,0,0,0-5.28.81,6.23,6.23,0,0,0-1.62,5.3,4.44,4.44,0,0,0,1,2.38,8.92,8.92,0,0,0,2.8,1.69,10.94,10.94,0,0,1,5.41,6.18c1.68,4.85,1.89,10,4,14.67s4.63,9.18,6.47,14a47.83,47.83,0,0,0,3.42,8c1.53,2.52,3.92,4.62,6.81,5a16.87,16.87,0,0,1,.82-5.37C392,249.54,393.08,247.21,392.17,245.33Z"/><path class="cls-8" d="M423.3,249.09a27.78,27.78,0,0,1,1.63-10.45,10.75,10.75,0,0,0,1-3.94,9.58,9.58,0,0,0-1.22-3.58,92.4,92.4,0,0,1-4.52-12.3L417.64,211a11.83,11.83,0,0,1-2.21-2.09,11.09,11.09,0,0,1-2.56-5.46,7.63,7.63,0,0,1,1.41-5.77,3.34,3.34,0,0,1,2.36-1.44,3.08,3.08,0,0,1,2.21,1,9.87,9.87,0,0,1,1.89,3.22,14.47,14.47,0,0,1,1.58,6c-.07,1.74-.72,3.68.3,5.09,3.34,4.64,5.87,10,8.52,15a25.54,25.54,0,0,1,1.72,3.76,20.78,20.78,0,0,1,.9,6.51,89.1,89.1,0,0,1-1.11,12.3c-.35,2.56-.82,5.35-2.76,7A40,40,0,0,0,423.3,249.09Z"/><circle class="cls-8" cx="410.51" cy="240.62" r="10.43"/><path class="cls-8" d="M415.56,251.6a13.87,13.87,0,0,0,2.25,5.21c.59,1,1.35,2.08,2.51,2.19a51.18,51.18,0,0,1-9.48,3.81,11,11,0,0,1-3.46.56,8.74,8.74,0,0,1-2.88-.74,14.35,14.35,0,0,1-8.14-9.52,18.69,18.69,0,0,0,3.88-.29,2.85,2.85,0,0,0,1.9-.94,3,3,0,0,0,.39-1.68c.05-1.74.06-3.48,0-5.22a20.48,20.48,0,0,1,7.58.93c1,.33,2,.72,3,1,.63.16,2.38,0,2.85.37C416.75,247.77,415.38,250.32,415.56,251.6Z"/><path class="cls-5" d="M411,257.94a6.57,6.57,0,0,1,5-5.83,11.33,11.33,0,0,0,3.2-.75c1.65-.92,2.15-3.16,3.73-4.19s3.84-.46,5.21.84a11.17,11.17,0,0,1,2.64,5,25.29,25.29,0,0,1,1.36,7.61,3.52,3.52,0,0,1-.23,1.4,5.53,5.53,0,0,1-1.11,1.39,6.12,6.12,0,0,0-1.51,4.91,14.12,14.12,0,0,1-.45,4.93c-1,4.43-2,8.86-2.82,13.34a8.14,8.14,0,0,0-.18,2.51c.15,1.22.82,2.36.67,3.57a14.42,14.42,0,0,0-.31,1.72,4,4,0,0,0,.3,1.27c1.14,3.31,4.22,10.91,4.19,14.42-5.35-1.38-13.25-1.68-18.78-1.71a40.64,40.64,0,0,0-4.55.2c-3.64.39-7.36,1.45-10.88.47-3.28-.91-6.17-3.52-9.56-3.19-.73-1.92.13-8.33.82-10.27a43.92,43.92,0,0,0,1.51-23.8c-.62-2.84.23-5.87-.46-8.69a5.12,5.12,0,0,0-.75-1.88,2,2,0,0,0-1.72-.9,64.17,64.17,0,0,1,1.26-13.54c.33-1.58,1-3.45,2.63-3.72,1.44-.25,2.64,1,3.8,1.86a10.19,10.19,0,0,0,4,1.89,3.79,3.79,0,0,1,1.65.6c.69.57.79,1.61,1.35,2.3,1,1.26,3.26,1.15,4,2.59a10,10,0,0,1,.38,1.32,4.73,4.73,0,0,0,1.66,2.14A9.16,9.16,0,0,0,411,257.94Z"/><path class="cls-9" d="M402,229.53a1.91,1.91,0,0,1,.4-2c.28-.22.64-.3.94-.51a4,4,0,0,0,1-1.27,5.45,5.45,0,0,1,6.83-1.73c1.82.95,2.92,2.85,4.53,4.13.82.66,1.77,1.16,2.59,1.82a10.62,10.62,0,0,1,3.37,5.44,31.57,31.57,0,0,1,.93,6.42,5.82,5.82,0,0,1-.08,1.95,5.12,5.12,0,0,1-.74,1.5,16.78,16.78,0,0,1-6.58,6.1,10.16,10.16,0,0,1-8.78.15,1.56,1.56,0,0,1-.68-.54,1.92,1.92,0,0,1-.1-1.16,7.9,7.9,0,0,0-.88-4.45c-.5-1-1.25-1.87-1.66-2.91a10.29,10.29,0,0,1-.47-3.61C402.61,235.73,402.82,232.57,402,229.53Z"/></svg>