<svg id="bf74385c-6483-43b7-aa3a-5b28e4e3e168" xmlns="http://www.w3.org/2000/svg" viewBox="0 0 823.5 539.23"><defs><style>.cls-1{fill:#e6e6e6;}.cls-2{fill:#9f616a;}.cls-3{fill:#2f2e41;}.cls-4{fill:#ff7300;}.cls-5{fill:#fff;}</style></defs><ellipse class="cls-1" cx="118" cy="530.23" rx="118" ry="9"/><path class="cls-2" d="M156.22,135.46l-47.08-12.84Q128,104.83,125.55,89.1h30.67Z"/><polygon class="cls-3" points="161.21 496.38 146 498.51 127.69 330.18 98.44 497.8 82.75 498.51 82.75 285.96 179.76 285.96 161.21 496.38"/><path class="cls-3" d="M90.65,530.31h0a10.7,10.7,0,0,0,10.61-7.82l1.11-16.57-2.24-11.76c-5.91-4.85-11.88-4.75-17.92,0l-1.92,24.63a10.69,10.69,0,0,0,9.83,11.49Z"/><path class="cls-3" d="M153.42,530.31h0a10.68,10.68,0,0,0,10.6-7.82l1.11-16.57-2.24-11.76c-5.9-4.85-11.87-4.75-17.91,0l-1.92,24.63a10.69,10.69,0,0,0,9.83,11.49Z"/><circle class="cls-2" cx="149.8" cy="84.11" r="27.1"/><path class="cls-1" d="M184,289.53H80.61C94,227.4,94,177.37,83.3,136.9a10.81,10.81,0,0,1,6.58-12.85l27.82-10.7c8.35,10.79,20.14,15.5,38.52,8.56l14.58,3a15,15,0,0,1,12,15.67c-1.08,15.82-.65,31.77-1.58,45.53C178.32,228.73,177.09,262,184,289.53Z"/><path class="cls-3" d="M135.53,48.44s15.7-17.83,34.24-.71l5,1.43L171.2,52s18.54,8.56,17.12,26.39c0,0-2.86-.71-4.28,0S181.9,87,181.9,87s-2.14-5.71-2.86-6.42-10.7,7.85-27.1-5c0,0-5,12.83-10.7,11.41s-13.55-.71-17.12,8.56C124.12,95.52,104.86,54.15,135.53,48.44Z"/><path class="cls-2" d="M189,273.84l-9.16,12.27a12,12,0,0,0,2.45,16.83l.15.11h0a12,12,0,0,0,18.92-7.85L204,278.83l5-70.62-3.57-35.66-22.82,8.56L189,211.78Z"/><path class="cls-1" d="M179.76,189.67l27.81-12.84-1.42-10.11A41.5,41.5,0,0,0,179.66,128l-8.46-3.28Z"/><path class="cls-2" d="M78.47,271l9.16,12.27a12,12,0,0,1-2.45,16.84l-.15.1h0a12,12,0,0,1-18.92-7.84L63.49,276l-5-70.62,3.57-35.66,22.82,8.56-6.42,30.67Z"/><path class="cls-1" d="M87.74,186.82,59.93,174l1.42-10.11a41.5,41.5,0,0,1,26.49-38.68l8.46-3.28Z"/><path class="cls-1" d="M816,459.73H340a7.5,7.5,0,0,1-7.5-7.5v-207a7.51,7.51,0,0,1,7.5-7.5H816a7.51,7.51,0,0,1,7.5,7.5v207A7.5,7.5,0,0,1,816,459.73Zm-476-219a4.51,4.51,0,0,0-4.5,4.5v207a4.5,4.5,0,0,0,4.5,4.5H816a4.5,4.5,0,0,0,4.5-4.5v-207a4.51,4.51,0,0,0-4.5-4.5Z"/><path class="cls-1" d="M359.5,263.23a4.5,4.5,0,0,0,0,9h63a4.5,4.5,0,0,0,0-9Z"/><path class="cls-1" d="M790.79,294.53V378H366V334c2.94-1.89,5.9-3.77,8.89-5.59,12.75-7.8,26.4-15.1,41.28-17.81a62.25,62.25,0,0,1,21.31-.26c7.47,1.23,14.61,3.8,21.69,6.38s14,5.19,21.27,6.67a62.27,62.27,0,0,0,21.57.43c13.66-2.05,26.49-7.54,39.27-12.51s26.11-9.71,40-10.33c13.74-.62,27.31,2.63,40.35,6.65,26.59,8.21,53.73,20.37,81.88,12,28.58-8.46,54.87-32.89,86.54-25.64A1.16,1.16,0,0,1,790.79,294.53Z"/><path class="cls-4" d="M790.79,296a1.27,1.27,0,0,1-1.45.64,48,48,0,0,0-11.52-1.19c-31.15.55-55.11,25.63-85.57,29.39-27.47,3.37-53.33-10-79.15-17-13.42-3.63-27.26-5.55-41.07-3.09s-26.56,8.05-39.47,13c-12.44,4.79-25.36,9.24-38.82,9.46-14.81.25-28.14-5.85-41.87-10.5-7.13-2.42-14.46-4.33-22-4.52a66.7,66.7,0,0,0-21.71,3.36c-14.59,4.64-27.73,12.91-40.53,21.12a1.12,1.12,0,0,1-.75.2,1.37,1.37,0,0,1-1.18-1.54,1.39,1.39,0,0,1,.59-1l.59-.37c2.93-1.89,5.89-3.77,8.87-5.59,12.72-7.8,26.35-15.1,41.19-17.81a62,62,0,0,1,21.27-.26c7.45,1.23,14.58,3.8,21.64,6.38s13.94,5.19,21.23,6.67a62,62,0,0,0,21.52.43c13.63-2.05,26.44-7.54,39.19-12.51s26.06-9.71,40-10.33c13.71-.62,27.25,2.63,40.27,6.65,26.52,8.21,53.61,20.37,81.7,12,28.52-8.46,54.76-32.89,86.37-25.64a1.17,1.17,0,0,1,.74.47A1.38,1.38,0,0,1,790.79,296Z"/><circle class="cls-4" cx="424.5" cy="311.46" r="6.21"/><circle class="cls-4" cx="581.48" cy="303.48" r="6.21"/><circle class="cls-4" cx="773.05" cy="295.49" r="6.21"/><path class="cls-1" d="M421,413.23a4.5,4.5,0,0,0,0,9h63a4.5,4.5,0,0,0,0-9Z"/><circle class="cls-4" cx="380.5" cy="417.23" r="17"/><path class="cls-1" d="M573,413.23a4.5,4.5,0,0,0,0,9h63a4.5,4.5,0,0,0,0-9Z"/><circle class="cls-4" cx="532.5" cy="417.23" r="17"/><path class="cls-1" d="M725,413.23a4.5,4.5,0,0,0,0,9h63a4.5,4.5,0,0,0,0-9Z"/><circle class="cls-4" cx="684.5" cy="417.23" r="17"/><path id="e1cfef3e-7788-4f0f-b252-d185c9336b04" class="cls-1" d="M783.42,181.84H548.58c-4.58,0-8.29-2.64-8.29-5.9v-51c0-3.26,3.71-5.9,8.29-5.9H783.42c4.58,0,8.29,2.64,8.29,5.9v51C791.71,179.2,788,181.84,783.42,181.84ZM548.58,121.36c-2.75,0-5,1.58-5,3.54v51c0,1.95,2.23,3.54,5,3.54H783.42c2.75,0,5-1.59,5-3.54v-51c0-2-2.23-3.54-5-3.54Z"/><path class="cls-4" d="M601.68,148a5,5,0,0,0-5,5v35a5,5,0,0,0,5,5h179a5,5,0,0,0,5-5V153a5,5,0,0,0-5-5Z"/><circle class="cls-5" cx="626.68" cy="171.01" r="11"/><path class="cls-5" d="M676.81,166.23a4.5,4.5,0,0,0,0,9h63a4.5,4.5,0,0,0,0-9Z"/><path id="b00e8b21-64f0-4b6c-8490-a93637cb24e1" class="cls-1" d="M607.42,62.84H372.58c-4.58,0-8.29-2.64-8.29-5.9V5.9c0-3.26,3.71-5.9,8.29-5.9H607.42c4.58,0,8.29,2.64,8.29,5.9v51C615.71,60.2,612,62.84,607.42,62.84ZM372.58,2.36c-2.75,0-5,1.58-5,3.54v51c0,2,2.23,3.54,5,3.54H607.42c2.75,0,5-1.59,5-3.54V5.9c0-1.95-2.23-3.54-5-3.54Z"/><path class="cls-4" d="M425.68,29a5,5,0,0,0-5,5V69a5,5,0,0,0,5,5h179a5,5,0,0,0,5-5V34a5,5,0,0,0-5-5Z"/><circle class="cls-5" cx="450.68" cy="52.01" r="11"/><path class="cls-5" d="M500.81,47.23a4.5,4.5,0,1,0,0,9h63a4.5,4.5,0,0,0,0-9Z"/></svg>