<svg id="aa7bae02-e79e-4d6b-a496-aba15f39787c" xmlns="http://www.w3.org/2000/svg" viewBox="0 0 500 500"><defs><style>.cls-1,.cls-8{fill:#3f3d56;}.cls-1{opacity:0.09;}.cls-2,.cls-3,.cls-4,.cls-5{fill:#ff7300;}.cls-2{opacity:0.2;}.cls-11,.cls-12,.cls-13,.cls-2,.cls-4,.cls-5{isolation:isolate;}.cls-4{opacity:0.7;}.cls-5{opacity:0.4;}.cls-6{fill:#767d9f;}.cls-7{fill:#ae6e79;}.cls-9{fill:#504f60;}.cls-10{fill:#9c9ca1;}.cls-11{opacity:0.05;}.cls-12,.cls-13{opacity:0.1;}.cls-13{stroke:#4c4981;stroke-miterlimit:10;}.cls-14{fill:#444053;}</style></defs><path class="cls-1" d="M365.68,134.69c-62.19-16.17-150.93-87.46-202.51-52.46S38.33,193.09,24.3,246.48s34.36,92.57,154.52,153.16,180,19,256.55-6S495.26,168.39,365.68,134.69Z"/><rect class="cls-2" x="107.09" y="156.92" width="11.15" height="11.15"/><rect class="cls-2" x="122.33" y="156.92" width="11.15" height="11.15"/><rect class="cls-2" x="137.57" y="156.92" width="11.15" height="11.15"/><rect class="cls-2" x="152.8" y="156.92" width="11.15" height="11.15"/><rect class="cls-2" x="168.04" y="156.92" width="11.15" height="11.15"/><rect class="cls-3" x="183.28" y="156.92" width="11.15" height="11.15"/><rect class="cls-2" x="198.52" y="156.92" width="11.15" height="11.15"/><rect class="cls-2" x="213.76" y="156.92" width="11.15" height="11.15"/><rect class="cls-2" x="228.99" y="156.92" width="11.15" height="11.15"/><rect class="cls-3" x="244.24" y="156.92" width="11.15" height="11.15"/><rect class="cls-2" x="259.48" y="156.92" width="11.15" height="11.15"/><rect class="cls-2" x="274.71" y="156.92" width="11.15" height="11.15"/><rect class="cls-2" x="289.95" y="156.92" width="11.15" height="11.15"/><rect class="cls-2" x="305.19" y="156.92" width="11.15" height="11.15"/><rect class="cls-2" x="320.43" y="156.92" width="11.15" height="11.15"/><rect class="cls-2" x="335.67" y="156.92" width="11.15" height="11.15"/><rect class="cls-3" x="350.9" y="156.92" width="11.15" height="11.15"/><rect class="cls-3" x="366.14" y="156.92" width="11.15" height="11.15"/><rect class="cls-2" x="381.39" y="156.92" width="11.15" height="11.15"/><rect class="cls-2" x="396.62" y="156.92" width="11.15" height="11.15"/><rect class="cls-3" x="411.86" y="156.92" width="11.15" height="11.15"/><rect class="cls-3" x="427.1" y="156.92" width="11.15" height="11.15"/><rect class="cls-2" x="91.85" y="171.04" width="11.15" height="11.15"/><rect class="cls-3" x="107.09" y="171.04" width="11.15" height="11.15"/><rect class="cls-2" x="122.33" y="171.04" width="11.15" height="11.15"/><rect class="cls-4" x="137.57" y="171.04" width="11.15" height="11.15"/><rect class="cls-2" x="152.8" y="171.04" width="11.15" height="11.15"/><rect class="cls-5" x="168.04" y="171.04" width="11.15" height="11.15"/><rect class="cls-3" x="183.28" y="171.04" width="11.15" height="11.15"/><rect class="cls-5" x="198.52" y="171.04" width="11.15" height="11.15"/><rect class="cls-2" x="213.76" y="171.04" width="11.15" height="11.15"/><rect class="cls-5" x="228.99" y="171.04" width="11.15" height="11.15"/><rect class="cls-3" x="244.24" y="171.04" width="11.15" height="11.15"/><rect class="cls-5" x="259.48" y="171.04" width="11.15" height="11.15"/><rect class="cls-5" x="274.71" y="171.04" width="11.15" height="11.15"/><rect class="cls-2" x="289.95" y="171.04" width="11.15" height="11.15"/><rect class="cls-5" x="305.19" y="171.04" width="11.15" height="11.15"/><rect class="cls-5" x="320.43" y="171.04" width="11.15" height="11.15"/><rect class="cls-2" x="335.67" y="171.04" width="11.15" height="11.15"/><rect class="cls-2" x="350.9" y="171.04" width="11.15" height="11.15"/><rect class="cls-5" x="366.14" y="171.04" width="11.15" height="11.15"/><rect class="cls-2" x="381.39" y="171.04" width="11.15" height="11.15"/><rect class="cls-3" x="396.62" y="171.04" width="11.15" height="11.15"/><rect class="cls-3" x="411.86" y="171.04" width="11.15" height="11.15"/><rect class="cls-3" x="427.1" y="171.04" width="11.15" height="11.15"/><rect class="cls-3" x="76.61" y="185.16" width="11.15" height="11.15"/><rect class="cls-4" x="91.85" y="185.16" width="11.15" height="11.15"/><rect class="cls-3" x="107.09" y="185.16" width="11.15" height="11.15"/><rect class="cls-4" x="122.33" y="185.16" width="11.15" height="11.15"/><rect class="cls-4" x="137.57" y="185.16" width="11.15" height="11.15"/><rect class="cls-2" x="152.8" y="185.16" width="11.15" height="11.15"/><rect class="cls-5" x="168.04" y="185.16" width="11.15" height="11.15"/><rect class="cls-5" x="183.28" y="185.16" width="11.15" height="11.15"/><rect class="cls-3" x="198.52" y="185.16" width="11.15" height="11.15"/><rect class="cls-2" x="213.76" y="185.16" width="11.15" height="11.15"/><rect class="cls-5" x="228.99" y="185.16" width="11.15" height="11.15"/><rect class="cls-3" x="244.24" y="185.16" width="11.15" height="11.15"/><rect class="cls-2" x="259.48" y="185.16" width="11.15" height="11.15"/><rect class="cls-5" x="274.71" y="185.16" width="11.15" height="11.15"/><rect class="cls-2" x="289.95" y="185.16" width="11.15" height="11.15"/><rect class="cls-3" x="305.19" y="185.16" width="11.15" height="11.15"/><rect class="cls-2" x="320.43" y="185.16" width="11.15" height="11.15"/><rect class="cls-4" x="335.67" y="185.16" width="11.15" height="11.15"/><rect class="cls-4" x="350.9" y="185.16" width="11.15" height="11.15"/><rect class="cls-5" x="366.14" y="185.16" width="11.15" height="11.15"/><rect class="cls-2" x="381.39" y="185.16" width="11.15" height="11.15"/><rect class="cls-3" x="396.62" y="185.16" width="11.15" height="11.15"/><rect class="cls-3" x="411.86" y="185.16" width="11.15" height="11.15"/><rect class="cls-3" x="427.1" y="185.16" width="11.15" height="11.15"/><rect class="cls-2" x="46.13" y="199.29" width="11.15" height="11.15"/><rect class="cls-2" x="61.37" y="199.29" width="11.15" height="11.15"/><rect class="cls-2" x="76.61" y="199.29" width="11.15" height="11.15"/><rect class="cls-2" x="91.85" y="199.29" width="11.15" height="11.15"/><rect class="cls-3" x="107.09" y="199.29" width="11.15" height="11.15"/><rect class="cls-4" x="122.33" y="199.29" width="11.15" height="11.15"/><rect class="cls-4" x="137.57" y="199.29" width="11.15" height="11.15"/><rect class="cls-2" x="152.8" y="199.29" width="11.15" height="11.15"/><rect class="cls-2" x="168.04" y="199.29" width="11.15" height="11.15"/><rect class="cls-5" x="183.28" y="199.29" width="11.15" height="11.15"/><rect class="cls-5" x="198.52" y="199.29" width="11.15" height="11.15"/><rect class="cls-3" x="213.76" y="199.29" width="11.15" height="11.15"/><rect class="cls-2" x="228.99" y="199.29" width="11.15" height="11.15"/><rect class="cls-5" x="244.24" y="199.29" width="11.15" height="11.15"/><rect class="cls-5" x="259.48" y="199.29" width="11.15" height="11.15"/><rect class="cls-5" x="274.71" y="199.29" width="11.15" height="11.15"/><rect class="cls-5" x="289.95" y="199.29" width="11.15" height="11.15"/><rect class="cls-2" x="305.19" y="199.29" width="11.15" height="11.15"/><rect class="cls-2" x="320.43" y="199.29" width="11.15" height="11.15"/><rect class="cls-2" x="335.67" y="199.29" width="11.15" height="11.15"/><rect class="cls-2" x="350.9" y="199.29" width="11.15" height="11.15"/><rect class="cls-4" x="366.14" y="199.29" width="11.15" height="11.15"/><rect class="cls-4" x="381.39" y="199.29" width="11.15" height="11.15"/><rect class="cls-5" x="396.62" y="199.29" width="11.15" height="11.15"/><rect class="cls-2" x="411.86" y="199.29" width="11.15" height="11.15"/><rect class="cls-3" x="427.1" y="199.29" width="11.15" height="11.15"/><rect class="cls-2" x="46.13" y="213.41" width="11.15" height="11.15"/><rect class="cls-2" x="61.37" y="213.41" width="11.15" height="11.15"/><rect class="cls-5" x="76.61" y="213.41" width="11.15" height="11.15"/><rect class="cls-2" x="91.85" y="213.41" width="11.15" height="11.15"/><rect class="cls-2" x="107.09" y="213.41" width="11.15" height="11.15"/><rect class="cls-4" x="122.33" y="213.41" width="11.15" height="11.15"/><rect class="cls-4" x="137.57" y="213.41" width="11.15" height="11.15"/><rect class="cls-2" x="152.8" y="213.41" width="11.15" height="11.15"/><rect class="cls-2" x="168.04" y="213.41" width="11.15" height="11.15"/><rect class="cls-5" x="183.28" y="213.41" width="11.15" height="11.15"/><rect class="cls-3" x="198.52" y="213.41" width="11.15" height="11.15"/><rect class="cls-2" x="213.76" y="213.41" width="11.15" height="11.15"/><rect class="cls-3" x="228.99" y="213.41" width="11.15" height="11.15"/><rect class="cls-3" x="244.24" y="213.41" width="11.15" height="11.15"/><rect class="cls-3" x="259.48" y="213.41" width="11.15" height="11.15"/><rect class="cls-2" x="274.71" y="213.41" width="11.15" height="11.15"/><rect class="cls-3" x="289.95" y="213.41" width="11.15" height="11.15"/><rect class="cls-2" x="305.19" y="213.41" width="11.15" height="11.15"/><rect class="cls-2" x="320.43" y="213.41" width="11.15" height="11.15"/><rect class="cls-2" x="335.67" y="213.41" width="11.15" height="11.15"/><rect class="cls-2" x="350.9" y="213.41" width="11.15" height="11.15"/><rect class="cls-2" x="366.14" y="213.41" width="11.15" height="11.15"/><rect class="cls-4" x="381.39" y="213.41" width="11.15" height="11.15"/><rect class="cls-2" x="396.62" y="213.41" width="11.15" height="11.15"/><rect class="cls-2" x="411.86" y="213.41" width="11.15" height="11.15"/><rect class="cls-3" x="427.1" y="213.41" width="11.15" height="11.15"/><rect class="cls-2" x="46.13" y="227.53" width="11.15" height="11.15"/><rect class="cls-2" x="61.37" y="227.53" width="11.15" height="11.15"/><rect class="cls-2" x="76.61" y="227.53" width="11.15" height="11.15"/><rect class="cls-5" x="91.85" y="227.53" width="11.15" height="11.15"/><rect class="cls-2" x="107.09" y="227.53" width="11.15" height="11.15"/><rect class="cls-2" x="122.33" y="227.53" width="11.15" height="11.15"/><rect class="cls-4" x="137.57" y="227.53" width="11.15" height="11.15"/><rect class="cls-2" x="152.8" y="227.53" width="11.15" height="11.15"/><rect class="cls-2" x="168.04" y="227.53" width="11.15" height="11.15"/><rect class="cls-2" x="183.28" y="227.53" width="11.15" height="11.15"/><rect class="cls-3" x="198.52" y="227.53" width="11.15" height="11.15"/><rect class="cls-2" x="213.76" y="227.53" width="11.15" height="11.15"/><rect class="cls-3" x="228.99" y="227.53" width="11.15" height="11.15"/><rect class="cls-3" x="244.24" y="227.53" width="11.15" height="11.15"/><rect class="cls-2" x="259.48" y="227.53" width="11.15" height="11.15"/><rect class="cls-2" x="274.71" y="227.53" width="11.15" height="11.15"/><rect class="cls-2" x="289.95" y="227.53" width="11.15" height="11.15"/><rect class="cls-2" x="305.19" y="227.53" width="11.15" height="11.15"/><rect class="cls-2" x="320.43" y="227.53" width="11.15" height="11.15"/><rect class="cls-2" x="335.67" y="227.53" width="11.15" height="11.15"/><rect class="cls-2" x="350.9" y="227.53" width="11.15" height="11.15"/><rect class="cls-2" x="366.14" y="227.53" width="11.15" height="11.15"/><rect class="cls-2" x="381.39" y="227.53" width="11.15" height="11.15"/><rect class="cls-2" x="396.62" y="227.53" width="11.15" height="11.15"/><rect class="cls-5" x="411.86" y="227.53" width="11.15" height="11.15"/><rect class="cls-3" x="427.1" y="227.53" width="11.15" height="11.15"/><rect class="cls-4" x="46.13" y="241.66" width="11.15" height="11.15"/><rect class="cls-4" x="61.37" y="241.66" width="11.15" height="11.15"/><rect class="cls-4" x="76.61" y="241.66" width="11.15" height="11.15"/><rect class="cls-4" x="91.85" y="241.66" width="11.15" height="11.15"/><rect class="cls-4" x="107.09" y="241.66" width="11.15" height="11.15"/><rect class="cls-2" x="122.33" y="241.66" width="11.15" height="11.15"/><rect class="cls-2" x="137.57" y="241.66" width="11.15" height="11.15"/><rect class="cls-2" x="152.8" y="241.66" width="11.15" height="11.15"/><rect class="cls-2" x="168.04" y="241.66" width="11.15" height="11.15"/><rect class="cls-2" x="183.28" y="241.66" width="11.15" height="11.15"/><rect class="cls-2" x="198.52" y="241.66" width="11.15" height="11.15"/><rect class="cls-3" x="213.76" y="241.66" width="11.15" height="11.15"/><rect class="cls-2" x="228.99" y="241.66" width="11.15" height="11.15"/><rect class="cls-2" x="244.24" y="241.66" width="11.15" height="11.15"/><rect class="cls-2" x="259.48" y="241.66" width="11.15" height="11.15"/><rect class="cls-3" x="274.71" y="241.66" width="11.15" height="11.15"/><rect class="cls-2" x="289.95" y="241.66" width="11.15" height="11.15"/><rect class="cls-2" x="305.19" y="241.66" width="11.15" height="11.15"/><rect class="cls-2" x="320.43" y="241.66" width="11.15" height="11.15"/><rect class="cls-2" x="335.67" y="241.66" width="11.15" height="11.15"/><rect class="cls-2" x="350.9" y="241.66" width="11.15" height="11.15"/><rect class="cls-2" x="366.14" y="241.66" width="11.15" height="11.15"/><rect class="cls-2" x="381.39" y="241.66" width="11.15" height="11.15"/><rect class="cls-2" x="396.62" y="241.66" width="11.15" height="11.15"/><rect class="cls-2" x="411.86" y="241.66" width="11.15" height="11.15"/><rect class="cls-3" x="427.1" y="241.66" width="11.15" height="11.15"/><circle class="cls-6" cx="321.03" cy="267.44" r="15.24"/><path class="cls-7" d="M320.24,248.05q2.28,10,3.87,20.06c.32,2,.61,4.11-.12,6a20.82,20.82,0,0,1-2.81,4.2c-1,1.38-1.71,3.15-1.12,4.73s2.31,2.45,4,2.89c4.7,1.27,9.71.35,14.39-1a23.64,23.64,0,0,0,6-2.5,22.61,22.61,0,0,0,5.1-4.81c6.83-8.28,11.29-18.21,15.5-28.07a17.14,17.14,0,0,1-14.47-5.83c-1.73-2-3-4.85-2-7.32-2.84,1.56-6.22,1.66-9.29,2.73a33.74,33.74,0,0,0-5.46,2.69q-3.13,1.81-6.24,3.7C325.21,246.92,323,248.19,320.24,248.05Z"/><path class="cls-6" d="M352.12,259.49c-2.68,5.2-6.15,10.19-11.11,13.29s-11.64,3.93-16.61.87c-2.45-1.49-4.3-3.77-6.44-5.68s-4.8-3.55-7.68-3.3c-3.16.27-5.64,2.74-7.76,5.1a61.18,61.18,0,0,0-8.6,11.6c-4.37,8.17-5.41,17.72-5.21,27s1.53,18.48,1.56,27.75c0,11.4-1.89,22.7-3.84,33.93,18-2.21,35.95,2.62,53.95,4.46,11.52,1.18,23.13,1.15,34.71,1.12,2,0,4.21-.05,5.9-1.18a7.9,7.9,0,0,0,2.45-2.9,27.81,27.81,0,0,0,2.68-9.64c1.14-8.4,1.17-16.91,1.2-25.39.08-20.54.15-41.15-2.46-61.53a58,58,0,0,0-3.38-14.75c-1.93-4.69-5.06-9-9.45-11.51-2.82-1.62-9.36-4.43-12.68-2.8C355.62,247.73,353.9,256,352.12,259.49Z"/><path class="cls-8" d="M353.44,317.5c-.67-12.68-3.43-26.2,2.44-37.45,1.44-2.77-3.73-6.21-2.13-8.89a40.09,40.09,0,0,0,4.39-10.46,8,8,0,0,0,.29-3.87c-.58-2.31-2.87-3.69-4.81-5.09-2.14-1.56-3.24-6.3-3.93-8.87s5.49.53,8-.39c3.45-1.26,7.84-.46,11.28.82a18.69,18.69,0,0,0,6.06.82,81.87,81.87,0,0,0,11.93-.28,29,29,0,0,1,5.34-.46c4.55.25,8.5,3.37,11.19,7.05s4.41,8,6.62,11.95c1.84,3.32,4,6.46,5.6,9.92a61,61,0,0,1,3.14,9.61l2.24,8.39a11.19,11.19,0,0,1,.55,3.72,10.51,10.51,0,0,1-1.31,3.78,71.87,71.87,0,0,1-8.16,12.46c-4.72,5.78-10.44,11-13.24,17.92a44.9,44.9,0,0,0-2.26,8.42,307.57,307.57,0,0,0-4.76,34.59,76.78,76.78,0,0,0-16-5.34,80.65,80.65,0,0,0-8.31-1.31c-2.44-.25-5.59.23-7.92-.43-3.89-1.11-4.32-7.69-4.91-11.13a101.58,101.58,0,0,1-1.16-16.61C353.58,330.07,353.78,323.78,353.44,317.5Z"/><path class="cls-8" d="M268,293.8c1.84,10.49,3.87,21,7.87,30.86l-.3.27c-.36.3-.73.59-1.11.88a14.54,14.54,0,0,0-2.62,2,3.6,3.6,0,0,0-.66,1.07,2.39,2.39,0,0,0,0,2c-2.08.92-4.5.63-6.84.55-2-.08-4,0-5.59,1.1-2.24,1.55-2.92,4.52-3.28,7.22-.14,1-.25,2-.35,3s-.17,1.84-.23,2.76a82.69,82.69,0,0,0-.08,9.18q0,.84.09,1.68c-7.14-.17-13.65-3.89-19.81-7.51a11.14,11.14,0,0,1-3.77-3.06,6.92,6.92,0,0,1-1-4.5,4.93,4.93,0,0,1,.07-.66,18.5,18.5,0,0,1,1-3.8,46.88,46.88,0,0,1,8.39-14.27c1.56-1.83,3.33-3.61,4.06-5.91.32-1,.43-2.06.76-3.06,1.45-4.32,6.68-6.36,8.48-10.55a28.4,28.4,0,0,1,1.18-3.06,7.47,7.47,0,0,1,1.85-2.07c.32-.27.65-.53,1-.79q4.61-3.6,8.88-7.62l1.57-1.51A26,26,0,0,0,268,293.8Z"/><path class="cls-8" d="M312.06,262.77c-.63.67-1.31,1.29-2,1.91l-.18.16-.7.66a16.82,16.82,0,0,0-3.3,3.84l-.08.12c-2.23,4-1.4,8.91-.78,13.44a114.39,114.39,0,0,1,1,17.05c-.12,7.86-1.05,15.68-1.06,23.54q0,2.67.12,5.34c.12,2.9.34,5.79.6,8.69.29,3.17.63,6.34.95,9.51.25,2.45.49,4.9.69,7.34.1,1.27.2,2.53.28,3.8.09,1.49.16,3,.21,4.46h0c0,.95.05,1.89.05,2.83v1.61c0,1,0,2-.09,3.05-.06,1.31-.15,2.62-.26,3.94a6.36,6.36,0,0,1-1.39,4l-.19.18-1.41-.18a145.38,145.38,0,0,0-29.42-.52c.22-1.48.41-2.95.6-4.43.09-.7.18-1.41.26-2.11s.19-1.61.28-2.41.19-1.75.28-2.63c.23-2.25.42-4.5.6-6.76q.38-4.94.57-9.88.11-2.37.15-4.74c.05-1.95.07-3.91.07-5.87s0-3.82-.05-5.73c0-.63,0-1.26-.07-1.88a11.72,11.72,0,0,0-.24-1.68,21.13,21.13,0,0,0-1.31-3.7c-.09-.23-.19-.44-.28-.68l-.15-.36c2.52-2.24,4.31-5.24,6-8.2,2.79-4.76,5.65-9.73,6.11-15.23s-2.26-11.67-7.51-13.35a36.23,36.23,0,0,0-4.42-.82,19.4,19.4,0,0,1-5.89-1.79c-.88.89-1.75,1.78-2.63,2.64a9.91,9.91,0,0,1,.95-3.81l.62,0a1.31,1.31,0,0,1-.07-.44,2.29,2.29,0,0,1,1-1.58c2.06-1.75,5.29-2.14,6.59-4.51a31.24,31.24,0,0,0,1.07-3.18c1.26-2.94,4.86-4,7-6.38s2.71-5.68,4.46-8.3a12.44,12.44,0,0,1,5.24-4.37q.27-.13.54-.24c3.63-1.56,7.93-1.91,11.69-1.9,1.46,0,5.25,0,7.1.78a2.34,2.34,0,0,1,.81.5C316.6,256.68,313.52,261.22,312.06,262.77Z"/><path class="cls-8" d="M268.67,283.81a26.6,26.6,0,0,1,20.43,2.13,19.28,19.28,0,0,1,7.7,7.33c2.6,4.72,2.49,10.41,2.3,15.8-.09,2.7-.21,5.49-1.39,7.91-1.38,2.8-4,4.73-6.63,6.3a18.26,18.26,0,0,1-5.38,2.33c-2.94.64-6,.1-8.95-.44-3.21-.59-6.67-1.31-8.9-3.7a15.33,15.33,0,0,1-2.74-5q-1.51-3.83-3.06-7.64c-1.77-4.42-2.36-8.1,0-12.4,1.07-2,2.36-3.8,3.41-5.78C266,289.69,267.84,284.07,268.67,283.81Z"/><path class="cls-9" d="M452.36,359.36v13.07a73.06,73.06,0,0,1-28.29,5.6H306.2l-.19.17-1.42-.17H94.92a91.32,91.32,0,0,1-47.27-12.84V345.24L148.49,333.6h.08l58.72,5,15.2,1.31,7.89.67,16.34,1.38,8.41.72,12.23,1,1.73.14,8.82.75,12,1L306.7,347l28.05,2.38,19.73,1.67,32.41,2.75,6.16.52.66.06.58.05,8.14.69,8.93.76,1,.08Z"/><polygon class="cls-10" points="333.92 358.88 207.54 337.31 202.64 362.09 260.57 369.03 278.41 371.26 327.47 361.6 333.92 358.88"/><path class="cls-10" d="M268.5,370l63.31-11.9a2.19,2.19,0,0,1,2.56,1.73,2,2,0,0,1,0,.42h0a2.19,2.19,0,0,1-1.79,2.16L270.79,374Z"/><path class="cls-7" d="M296,332.59a16.35,16.35,0,0,0,5.74-1.36c2.18-1.09,3.88-3,5.91-4.35a17.58,17.58,0,0,1,15.5-1.71,25,25,0,0,1,12.34,10c2,3,3.46,6.82,2.07,10.12a13.57,13.57,0,0,1-1.8,2.81l-3.65,4.77a12.74,12.74,0,0,1-2.47,2.66,10.5,10.5,0,0,1-4.73,1.64c-4.44.65-8.95.28-13.42.58-7.68.51-15.18,3-22.88,2.9a69.22,69.22,0,0,1-13.11-1.83l-19.13-3.93c-3.33-.68-7.1-1.68-8.67-4.7a10.89,10.89,0,0,1-.91-4.46c-.23-4.22,0-8.9,2.92-11.94,2.74-2.85,7.08-3.75,10.36-5.86,4-2.58,5.34-1.74,9.57.2A52.47,52.47,0,0,0,296,332.59Z"/><path class="cls-11" d="M296,332.59a16.35,16.35,0,0,0,5.74-1.36c2.18-1.09,3.88-3,5.91-4.35a17.58,17.58,0,0,1,15.5-1.71,25,25,0,0,1,12.34,10c2,3,3.46,6.82,2.07,10.12a13.57,13.57,0,0,1-1.8,2.81l-3.65,4.77a12.74,12.74,0,0,1-2.47,2.66,10.5,10.5,0,0,1-4.73,1.64c-4.44.65-8.95.28-13.42.58-7.68.51-15.18,3-22.88,2.9a69.22,69.22,0,0,1-13.11-1.83l-19.13-3.93c-3.33-.68-7.1-1.68-8.67-4.7a10.89,10.89,0,0,1-.91-4.46c-.23-4.22,0-8.9,2.92-11.94,2.74-2.85,7.08-3.75,10.36-5.86,4-2.58,5.34-1.74,9.57.2A52.47,52.47,0,0,0,296,332.59Z"/><path class="cls-7" d="M372.79,326.6A113.47,113.47,0,0,1,356.4,332c-9.42,2.08-19.28,1.75-28.63,4.12-4.94,1.26-9.85,3.29-14.92,2.88a46.24,46.24,0,0,1-6.67-1.4c-12.4-3.06-26.49-2.07-36.56,5.8A45.85,45.85,0,0,0,260.8,353a6.43,6.43,0,0,0,1.53,9,6.11,6.11,0,0,0,1.05.61,37.67,37.67,0,0,0,12.41,3.3c5.74.51,11.5-.3,17.21-1.11,8.47-1.21,16.94-2.41,25.39-3.76,3-.49,6.07-1,9.12-1.38,21.95-2.77,44.3.6,66.31-1.71a20.38,20.38,0,0,0,6.52-1.49c5.12-2.41,7.65-8.74,6.6-14.31s-5.14-10.2-10.06-13c-4.11-2.39-8.55-3.36-13.14-4.37C379.48,323.72,376.89,325,372.79,326.6Z"/><path class="cls-12" d="M419.87,293.32c2.42,3.17,2.94,7.43,2.68,11.4s-1.21,7.9-1.35,11.89c-.19,5.47,1.13,10.93.91,16.38A47.25,47.25,0,0,1,420,344.21c-1.26,4.32-3.09,9-7.08,11.05-5.29,2.75-16.4,1.2-22,3.36.51-3.16,5.37-7.74,5.88-10.89a20.56,20.56,0,0,0,.33-6.63,14.67,14.67,0,0,0-4.07-7.33,21.48,21.48,0,0,0-11.57-6.56c-4.43-.8-15.3-.14-18.84,2.66-.44-2.89,7.69-5.68,10.55-6.31,1.42-.31,3.06-.14,4.2-1,2.18-1.71.59-5.13.7-7.87.08-2.18,1.36-4.18,1.62-6.37.43-3.5-1.85-7.06-.95-10.49a27.18,27.18,0,0,1,1.58-3.59c1.56-3.69.87-7.9,0-11.83-.51-2.46-1-5.24.36-7.35,1.27-2,4.88,5,7.19,4.71,7.64-1.07,14.55-6.73,20.71-2.1,3.15,2.36,3.56,4.81,4.81,8.18C414.67,289,417.83,290.66,419.87,293.32Z"/><path class="cls-8" d="M421.18,293.32c2.43,3.17,2.94,7.43,2.68,11.4s-1.21,7.9-1.35,11.89c-.19,5.47,1.13,10.93.91,16.38a46.75,46.75,0,0,1-2.14,11.22c-1.26,4.32-3.09,9-7.08,11.05-5.29,2.75-16.4,1.2-22,3.36.51-3.16,5.37-7.74,5.88-10.89a20.56,20.56,0,0,0,.33-6.63,14.6,14.6,0,0,0-4.07-7.33,21.48,21.48,0,0,0-11.57-6.56c-4.43-.8-15.29-.14-18.84,2.66-.44-2.89,7.69-5.68,10.55-6.31,1.42-.31,3.06-.14,4.2-1,2.18-1.71.6-5.13.7-7.87.08-2.18,1.36-4.18,1.62-6.37.44-3.5-1.85-7.06-.95-10.49a27.18,27.18,0,0,1,1.58-3.59c1.56-3.69.88-7.9.05-11.83-.52-2.46-1-5.24.35-7.35,1.27-2,3.76-2.7,6.07-3A29.88,29.88,0,0,1,410,277.63c3.15,2.36,3.56,4.81,4.81,8.18C416,289,419.14,290.66,421.18,293.32Z"/><path class="cls-10" d="M132,272.61l23.77,87.82a5.48,5.48,0,0,0,4.76,4l107,10.27a5.48,5.48,0,0,0,6-4.93,5.38,5.38,0,0,0-.13-1.83L247.31,262a5.49,5.49,0,0,0-5.74-4.16l-104.71,7.84a5.47,5.47,0,0,0-5,5.88A4.94,4.94,0,0,0,132,272.61Z"/><path class="cls-13" d="M350.6,242.54v1.8l-2.57-.25-4.83-5S350.68,240.75,350.6,242.54Z"/><path class="cls-13" d="M357.57,260.44l-1.8-3v-12C359.34,252.1,357.57,260.44,357.57,260.44Z"/><path class="cls-12" d="M348.66,232.5c0,17.59-12,34.53-29.62,34.53a31.84,31.84,0,0,1,0-63.68C336.63,203.37,348.66,214.91,348.66,232.5Z"/><circle class="cls-7" cx="319.04" cy="234.33" r="31.84"/><path class="cls-14" d="M316.25,220.23c3.78,1.39,6,5.31,9.43,7.49,4.81,3.06,11.06,2.26,16.55.75,3.06-.83,6.26-1.85,9.27-.92a2.76,2.76,0,0,0,1.42.2c.65-.19,1-.92,1.19-1.56,3.72-11.1,2.05-23.68-3.57-33.95a21.86,21.86,0,0,0-5.59-7.05,23.34,23.34,0,0,0-6.34-3.2A63,63,0,0,0,326,178.87a7.71,7.71,0,0,0-2.3-.07,9.6,9.6,0,0,0-2.94,1.24,30.05,30.05,0,0,1-13.05,3.55c-6.12.23-13.11-1.21-17.83,2.71-5.68,4.71-4.26,13.89-7.95,20.28-2.43,4.23-7.14,7.29-7.91,12.11a11.26,11.26,0,0,0,.27,4.4,17.91,17.91,0,0,0,16.61,13.27,6.3,6.3,0,0,0,3.39-.69,7.61,7.61,0,0,0,1.79-1.7C301.07,228,306.79,216.75,316.25,220.23Z"/><path class="cls-12" d="M354.11,223c-.22.64-.54,1.37-1.19,1.56a2.66,2.66,0,0,1-1.42-.21c-3-.92-6.22.1-9.26.93-5.5,1.51-11.77,2.32-16.56-.75-3.4-2.19-5.64-6.12-9.43-7.5-9.46-3.49-15.18,7.82-20.2,13.75a8,8,0,0,1-1.79,1.7,6.32,6.32,0,0,1-3.39.69,18,18,0,0,1-16.61-13.27c-.1-.44-.19-.88-.25-1.31a.23.23,0,0,1,0,.11,11.06,11.06,0,0,0,.27,4.4,17.9,17.9,0,0,0,16.61,13.27,6.32,6.32,0,0,0,3.39-.69,7.81,7.81,0,0,0,1.79-1.7c5-5.93,10.74-17.22,20.2-13.74,3.79,1.39,6,5.31,9.43,7.49,4.81,3.06,11.06,2.27,16.56.76,3.06-.84,6.25-1.86,9.26-.93a2.76,2.76,0,0,0,1.42.2c.65-.19,1-.91,1.19-1.56a39.67,39.67,0,0,0,2-14.1A38.87,38.87,0,0,1,354.11,223Z"/><rect class="cls-8" x="458" y="283.75" width="1.46" height="8.29"/><rect class="cls-8" x="454.58" y="287.16" width="8.29" height="1.46"/><path class="cls-8" d="M79.77,300.71a1.79,1.79,0,0,1-1-2.17,1.77,1.77,0,0,0,0-.2h0a.9.9,0,0,0-.84-1,.89.89,0,0,0-.78.36h0a1,1,0,0,0-.1.17,1.79,1.79,0,0,1-2.17,1,.64.64,0,0,0-.2,0h0a.89.89,0,0,0-.6,1.61h0a.81.81,0,0,0,.18.1,1.8,1.8,0,0,1,1,2.17.71.71,0,0,0,0,.2h0a.9.9,0,0,0,.84,1,.92.92,0,0,0,.78-.36h0a1,1,0,0,0,.1-.18,1.8,1.8,0,0,1,2.17-1,.45.45,0,0,0,.2,0h0a.89.89,0,0,0,1-.83.88.88,0,0,0-.36-.78h0A.59.59,0,0,0,79.77,300.71Z"/><circle class="cls-8" cx="194.43" cy="110.98" r="2.93"/><circle class="cls-8" cx="310.77" cy="409.84" r="2.93"/><rect class="cls-2" x="46.13" y="171.04" width="11.15" height="11.15"/><rect class="cls-4" x="61.37" y="171.04" width="11.15" height="11.15"/><rect class="cls-2" x="76.61" y="171.04" width="11.15" height="11.15"/><rect class="cls-2" x="46.13" y="185.16" width="11.15" height="11.15"/><rect class="cls-2" x="61.37" y="185.16" width="11.15" height="11.15"/><rect class="cls-2" x="46.13" y="156.92" width="11.15" height="11.15"/><rect class="cls-3" x="61.37" y="156.92" width="11.15" height="11.15"/><rect class="cls-2" x="76.61" y="156.92" width="11.15" height="11.15"/><rect class="cls-2" x="91.84" y="156.92" width="11.15" height="11.15"/></svg>