<svg id="aa7bae02-e79e-4d6b-a496-aba15f39787c" xmlns="http://www.w3.org/2000/svg" xmlns:xlink="http://www.w3.org/1999/xlink" viewBox="0 0 500 500"><defs><style>.cls-1{fill:none;}.cls-2,.cls-26{fill:#3f3d56;}.cls-2{opacity:0.09;}.cls-3{opacity:0.5;}.cls-4{fill:url(#linear-gradient);}.cls-5{fill:#f2f2f2;}.cls-6{fill:#e0e0e0;}.cls-13,.cls-21,.cls-7{fill:#ff7300;}.cls-19,.cls-7{opacity:0.7;}.cls-13,.cls-17,.cls-19,.cls-7{isolation:isolate;}.cls-8{fill:url(#linear-gradient-2);}.cls-9{fill:#f5f5f5;}.cls-10{fill:url(#linear-gradient-3);}.cls-11{fill:#fff;}.cls-12{clip-path:url(#clip-path);}.cls-13,.cls-17{opacity:0.4;}.cls-14{fill:url(#linear-gradient-4);}.cls-15{fill:url(#linear-gradient-5);}.cls-16{clip-path:url(#clip-path-2);}.cls-17{fill:#bdbdbd;}.cls-18{fill:url(#linear-gradient-6);}.cls-19,.cls-22{fill:#3ad29f;}.cls-20{fill:url(#linear-gradient-7);}.cls-23{fill:#f55f44;}.cls-24{fill:#fdd835;}.cls-25{fill:url(#linear-gradient-8);}</style><linearGradient id="linear-gradient" x1="212.92" y1="160.98" x2="212.92" y2="412.75" gradientTransform="matrix(1, 0, 0, -1, 0, 532.34)" gradientUnits="userSpaceOnUse"><stop offset="0" stop-color="gray" stop-opacity="0.25"/><stop offset="0.54" stop-color="gray" stop-opacity="0.12"/><stop offset="1" stop-color="gray" stop-opacity="0.1"/></linearGradient><linearGradient id="linear-gradient-2" x1="169.5" y1="296.14" x2="169.5" y2="363.47" xlink:href="#linear-gradient"/><linearGradient id="linear-gradient-3" x1="169.5" y1="316.14" x2="169.5" y2="358.1" xlink:href="#linear-gradient"/><clipPath id="clip-path"><rect class="cls-1" x="139.46" y="174.72" width="60.08" height="40.5"/></clipPath><linearGradient id="linear-gradient-4" x1="169.5" y1="209.77" x2="169.5" y2="277.11" xlink:href="#linear-gradient"/><linearGradient id="linear-gradient-5" x1="169.5" y1="229.78" x2="169.5" y2="271.74" xlink:href="#linear-gradient"/><clipPath id="clip-path-2"><rect class="cls-1" x="139.46" y="261.08" width="60.08" height="40.5"/></clipPath><linearGradient id="linear-gradient-6" x1="413.09" y1="-116.71" x2="413.09" y2="135.06" gradientTransform="matrix(0, 1, 1, 0, 253.99, -164.21)" xlink:href="#linear-gradient"/><linearGradient id="linear-gradient-7" x1="412.85" y1="-34.25" x2="412.85" y2="32.1" gradientTransform="matrix(0, 1, 1, 0, 262, -153.97)" xlink:href="#linear-gradient"/><linearGradient id="linear-gradient-8" x1="497.72" y1="111.23" x2="497.72" y2="280.37" gradientTransform="matrix(1, 0, 0, -1, -179, 471.8)" gradientUnits="userSpaceOnUse"><stop offset="0" stop-color="#b3b3b3" stop-opacity="0.25"/><stop offset="0.54" stop-color="#b3b3b3" stop-opacity="0.1"/><stop offset="1" stop-color="#b3b3b3" stop-opacity="0.05"/></linearGradient></defs><path class="cls-2" d="M247.45,84.59C190.53,112.36,78.66,115.3,62.2,175.19S39,340,62.36,389.72s84.6,48.32,213.23,17,147.1-101.54,188.64-170S366.07,26.72,247.45,84.59Z"/><g class="cls-3"><rect class="cls-4" x="119.24" y="119.59" width="187.36" height="251.76"/></g><rect class="cls-5" x="121.68" y="123.01" width="181.5" height="242.98"/><rect class="cls-6" x="135.83" y="133.25" width="62.45" height="1.95"/><rect class="cls-7" x="135.83" y="142.03" width="62.45" height="1.95"/><rect class="cls-6" x="207.55" y="133.25" width="62.45" height="1.95"/><rect class="cls-6" x="217.31" y="188.88" width="62.45" height="1.95"/><rect class="cls-6" x="218.78" y="194.24" width="62.45" height="1.95"/><rect class="cls-6" x="221.7" y="199.61" width="62.45" height="1.95"/><rect class="cls-6" x="217.31" y="275.23" width="62.45" height="1.95"/><rect class="cls-6" x="218.78" y="280.6" width="62.45" height="1.95"/><rect class="cls-6" x="221.7" y="285.97" width="62.45" height="1.95"/><g class="cls-3"><rect class="cls-8" x="136.32" y="168.87" width="66.35" height="67.33"/></g><rect class="cls-9" x="136.74" y="170.33" width="65.31" height="64.4"/><g class="cls-3"><rect class="cls-10" x="139.04" y="174.24" width="60.91" height="41.96"/></g><rect id="e1f34465-d008-41db-868b-e00503fb87b3" class="cls-11" x="139.46" y="174.72" width="60.08" height="40.5"/><g class="cls-12"><polygon class="cls-13" points="134.36 213.76 149.49 190.34 155.83 200.58 169.5 186.44 181.21 200.58 191.45 179.6 217.8 221.56 132.41 218.63 134.36 213.76"/><circle class="cls-13" cx="146.07" cy="180.58" r="4.39"/></g><g class="cls-3"><rect class="cls-14" x="136.32" y="255.23" width="66.35" height="67.33"/></g><rect class="cls-9" x="136.74" y="256.69" width="65.31" height="64.4"/><g class="cls-3"><rect class="cls-15" x="139.04" y="260.6" width="60.91" height="41.96"/></g><rect id="c95ac4f6-be4d-44a3-92c2-5c8066e2b531" class="cls-11" x="139.46" y="261.08" width="60.08" height="40.5"/><g class="cls-16"><polygon class="cls-17" points="134.36 300.12 149.49 276.7 155.83 286.94 169.5 272.79 181.21 286.94 191.45 265.96 217.8 307.92 132.41 305 134.36 300.12"/><circle class="cls-17" cx="146.07" cy="266.94" r="4.39"/></g><g class="cls-3"><rect class="cls-18" x="137.28" y="155.2" width="251.76" height="187.36" transform="translate(-32.23 458.48) rotate(-78.76)"/></g><rect class="cls-11" x="141.38" y="157.07" width="242.98" height="181.5" transform="translate(-31.44 457.35) rotate(-78.76)"/><rect class="cls-6" x="270.31" y="73.65" width="1.95" height="128.81" transform="translate(82.99 377.22) rotate(-78.76)"/><rect class="cls-6" x="234.36" y="254.55" width="1.95" height="128.81" transform="translate(-123.38 487.6) rotate(-78.76)"/><rect class="cls-6" x="217.81" y="277.34" width="1.95" height="99.54" transform="translate(-144.69 477.93) rotate(-78.76)"/><rect class="cls-7" x="184.99" y="313.49" width="1.95" height="37.08" transform="translate(-175.94 449.71) rotate(-78.76)"/><rect class="cls-7" x="236.53" y="110.59" width="1.95" height="64.4" transform="translate(51.16 347.9) rotate(-78.76)"/><rect class="cls-6" x="259.71" y="100.77" width="1.95" height="116.12" transform="translate(54.08 383.56) rotate(-78.76)"/><rect class="cls-19" x="214.45" y="147.14" width="1.95" height="28.3" transform="translate(15.24 341.14) rotate(-78.76)"/><rect class="cls-6" x="261.56" y="117.68" width="1.95" height="128.81" transform="translate(32.77 404.09) rotate(-78.76)"/><g class="cls-3"><rect class="cls-20" x="227.75" y="201.06" width="66.35" height="115.63" transform="translate(-43.85 464.34) rotate(-78.76)"/></g><rect class="cls-11" x="228.55" y="201.56" width="64.89" height="114.17" transform="translate(-43.56 464.21) rotate(-78.76)"/><rect class="cls-6" x="259.37" y="128.69" width="1.95" height="128.81" transform="translate(20.21 410.81) rotate(-78.76)"/><rect class="cls-21" x="200.01" y="244.15" width="47.33" height="14.15" transform="translate(-66.33 421.63) rotate(-78.76)"/><rect class="cls-22" x="231.17" y="256.75" width="31.71" height="14.15" transform="translate(-59.89 454.7) rotate(-78.76)"/><rect class="cls-23" x="261.96" y="268.88" width="17.08" height="14.15" transform="translate(-52.89 487.47) rotate(-78.76)"/><rect class="cls-24" x="279.77" y="265.21" width="34.64" height="14.15" transform="translate(-27.88 510.6) rotate(-78.76)"/><path class="cls-25" d="M347.9,211.42a65.13,65.13,0,0,0-92.09-1.81c-.38.37-.75.73-1.12,1.11a65.13,65.13,0,0,0,82.56,99.91l47.08,49a3.16,3.16,0,0,0,4.48.08l11.73-11.28a3.17,3.17,0,0,0,.09-4.48l-47.07-49A65.13,65.13,0,0,0,347.9,211.42Zm-14.66,78.73a46.58,46.58,0,1,1,1.29-65.87,46.59,46.59,0,0,1-1.29,65.87Z"/><path class="cls-21" d="M353,209a65.13,65.13,0,0,0-92.09-1.81l-1.13,1.1a65.13,65.13,0,0,0,82.57,99.91l47.07,49a3.18,3.18,0,0,0,4.49.09l11.73-11.28a3.17,3.17,0,0,0,.09-4.48l-47.09-49A65.12,65.12,0,0,0,353,209Zm-14.67,78.7a46.59,46.59,0,1,1,1.3-65.87,46.57,46.57,0,0,1-1.3,65.87Z"/><rect class="cls-26" x="105.58" y="342.57" width="1.46" height="8.29"/><rect class="cls-26" x="102.16" y="345.98" width="8.29" height="1.46"/><path class="cls-26" d="M293.76,68.51a1.81,1.81,0,0,1-1-2.17.71.71,0,0,0,0-.2h0a.9.9,0,0,0-.83-1,.93.93,0,0,0-.79.36h0a1.62,1.62,0,0,0-.1.18,1.79,1.79,0,0,1-2.16,1,.78.78,0,0,0-.21,0h0a.89.89,0,0,0-.58,1.62h0a.59.59,0,0,0,.17.1,1.79,1.79,0,0,1,1,2.17,1.42,1.42,0,0,0,0,.2h0a.9.9,0,0,0,1.63.59h0a.59.59,0,0,0,.1-.17,1.79,1.79,0,0,1,2.17-1l.2,0h0a.9.9,0,0,0,.6-1.62h0A.75.75,0,0,0,293.76,68.51Z"/><path class="cls-26" d="M112.26,130a1.79,1.79,0,0,1-1-2.17,1.42,1.42,0,0,0,0-.2h0a.9.9,0,0,0-.84-1,.91.91,0,0,0-.78.36h0a1,1,0,0,0-.1.18,1.79,1.79,0,0,1-2.17,1,.64.64,0,0,0-.2,0h0a.89.89,0,0,0-.6,1.61h0a.81.81,0,0,0,.18.1,1.8,1.8,0,0,1,1,2.17.79.79,0,0,0,0,.2h0a.9.9,0,0,0,1.62.6h0a1,1,0,0,0,.1-.17,1.78,1.78,0,0,1,2.17-1,.64.64,0,0,0,.2,0h0a.89.89,0,0,0,1-.83.88.88,0,0,0-.36-.78h0A.59.59,0,0,0,112.26,130Z"/><path class="cls-26" d="M370.36,383.7a1.8,1.8,0,0,1-1-2.17.64.64,0,0,0,0-.2h0a.89.89,0,0,0-1.61-.6h0a.81.81,0,0,0-.1.18,1.81,1.81,0,0,1-2.17,1,.71.71,0,0,0-.2,0h0a.89.89,0,0,0-1,.83.93.93,0,0,0,.36.79h0a.77.77,0,0,0,.18.1,1.78,1.78,0,0,1,1,2.16.75.75,0,0,0,0,.2h0a.89.89,0,0,0,.83,1,.88.88,0,0,0,.78-.36h0a.59.59,0,0,0,.1-.17,1.79,1.79,0,0,1,2.17-1l.2,0h0a.9.9,0,0,0,1-.84.89.89,0,0,0-.36-.78h0A.52.52,0,0,0,370.36,383.7Z"/><circle class="cls-26" cx="189.01" cy="96.66" r="2.93"/><circle class="cls-26" cx="398.81" cy="133.25" r="2.93"/><circle class="cls-26" cx="382.23" cy="220.59" r="2.93"/><circle class="cls-26" cx="57.76" cy="77.14" r="2.93"/></svg>