<svg id="aa7bae02-e79e-4d6b-a496-aba15f39787c" xmlns="http://www.w3.org/2000/svg" xmlns:xlink="http://www.w3.org/1999/xlink" viewBox="0 0 500 500"><defs><style>.cls-1,.cls-13,.cls-4{fill:none;}.cls-2{fill:#f2f2f2;}.cls-3,.cls-5{fill:#3f3d56;}.cls-3{opacity:0.09;}.cls-4{stroke:#ff7300;stroke-width:4px;}.cls-13,.cls-4{stroke-miterlimit:10;}.cls-6{fill:#ff7300;}.cls-11,.cls-13,.cls-7{opacity:0.1;}.cls-13,.cls-7{isolation:isolate;}.cls-8{fill:url(#linear-gradient);}.cls-9{fill:#be6f72;}.cls-10{fill:#ff6f61;}.cls-12{fill:url(#ad310e25-2b04-44c8-bb7b-9823891);}.cls-13{stroke:#000;}</style><linearGradient id="linear-gradient" x1="422.42" y1="-1177.83" x2="422.42" y2="-968.97" gradientTransform="matrix(1, 0, 0, -1, -52, -755.63)" gradientUnits="userSpaceOnUse"><stop offset="0" stop-color="gray" stop-opacity="0.25"/><stop offset="0.54" stop-color="gray" stop-opacity="0.12"/><stop offset="1" stop-color="gray" stop-opacity="0.1"/></linearGradient><pattern id="ad310e25-2b04-44c8-bb7b-9823891" data-name="ad310e25-2b04-44c8-bb7b-9823891" width="36.88" height="49.48" patternTransform="matrix(1.21, 0, 0, -1.21, -107.04, 525.76)" patternUnits="userSpaceOnUse" viewBox="0 0 36.88 49.48"><rect class="cls-1" width="36.88" height="49.48"/><rect class="cls-1" width="36.88" height="49.48"/><path d="M4.33,36.29c4.5,0,4.51,7,0,7S-.19,36.29,4.33,36.29Z"/><path d="M4.51,32.32c4.51,0,4.52,7,0,7S0,32.32,4.51,32.32Z"/><path d="M4.51,28.54c4.51,0,4.52,7,0,7S0,28.54,4.51,28.54Z"/><path d="M3.38,24.76c4.51,0,4.51,7,0,7S-1.13,24.76,3.38,24.76Z"/><path d="M1.09,21.19l.2-.38a3.52,3.52,0,0,1,4.78-1.25,3.58,3.58,0,0,1,1.26,4.79l-.19.37A3.53,3.53,0,0,1,2.35,26,3.58,3.58,0,0,1,1.09,21.19Z"/><path d="M1.49,19.38l.18-.57a3.73,3.73,0,0,1,1.61-2.09A3.59,3.59,0,0,1,6,16.37a3.54,3.54,0,0,1,2.44,4.31l-.18.56a3.68,3.68,0,0,1-1.61,2.1,3.61,3.61,0,0,1-2.69.35A3.56,3.56,0,0,1,1.49,19.38Z"/><path d="M1.58,15.6v-.38a3.54,3.54,0,0,1,3.5-3.5,3.56,3.56,0,0,1,3.5,3.5v.38a3.54,3.54,0,0,1-3.5,3.5A3.57,3.57,0,0,1,1.58,15.6Z"/><path d="M4.89,7.18c4.51,0,4.51,7,0,7S.38,7.18,4.89,7.18Z"/><path d="M1.77,7.48V7.29a3.54,3.54,0,0,1,3.5-3.5,3.56,3.56,0,0,1,3.5,3.5v.19A3.54,3.54,0,0,1,5.27,11,3.56,3.56,0,0,1,1.77,7.48Z"/><path d="M6,.19c4.5,0,4.51,7,0,7S1.48.19,6,.19Z"/><path d="M10,35.34c4.5,0,4.51,7,0,7S5.48,35.34,10,35.34Z"/><path d="M6.59,28.54c4.51,0,4.52,7,0,7S2.08,28.54,6.59,28.54Z"/><path d="M8.48,22.48c4.51,0,4.51,7,0,7S4,22.48,8.48,22.48Z"/><path d="M8.48,20.22c4.51,0,4.51,7,0,7S4,20.22,8.48,20.22Z"/><path d="M14.91,15.69c4.5,0,4.51,7,0,7S10.4,15.69,14.91,15.69Z"/><path d="M9.81,11c4.5,0,4.51,7,0,7S5.29,11,9.81,11Z"/><path d="M10.56,4.35c4.51,0,4.51,7,0,7S6.05,4.35,10.56,4.35Z"/><path d="M10.56,0c4.51,0,4.51,7,0,7S6.05,0,10.56,0Z"/><path d="M12.83,31.36c2.57,0,2.58,4,0,4S10.25,31.36,12.83,31.36Z"/><path d="M13,29.09c2.57,0,2.58,4,0,4S10.42,29.09,13,29.09Z"/><path d="M13.1,28.48v-.19a2,2,0,0,1,4,0v.19a2,2,0,0,1-4,0Z"/><path d="M15.1,23.61c2.57,0,2.58,4,0,4S12.52,23.61,15.1,23.61Z"/><path d="M16.61,38.41a1,1,0,1,1-1,1A1,1,0,0,1,16.61,38.41Z"/><path d="M21.71,32.93a1,1,0,1,1-1,1A1,1,0,0,1,21.71,32.93Z"/><path d="M16.85,40.54v.38a1,1,0,0,1-2,0v-.38a1,1,0,0,1,2,0Z"/><path d="M16.48,44.7v.19a1,1,0,0,1-2,0V44.7a1,1,0,0,1,2,0Z"/><path d="M15.48,47.48a1,1,0,1,1-1,1A1,1,0,0,1,15.48,47.48Z"/><path d="M10.56,47.48a1,1,0,1,1-1,1A1,1,0,0,1,10.56,47.48Z"/><path d="M10.37,44.83a1,1,0,1,1-1,1A1,1,0,0,1,10.37,44.83Z"/><path d="M7.35,43.32a1,1,0,1,1-1,1A1,1,0,0,1,7.35,43.32Z"/><path d="M11.88,42.38h.38a1,1,0,0,1,0,2h-.38a1,1,0,0,1,0-2Z"/><path d="M13.28,38.48l.57-1.32a1,1,0,0,1,1.37-.36h0a1,1,0,0,1,.36,1.37h0L15,39.48a1,1,0,0,1-1.37.36h0A1,1,0,0,1,13.28,38.48Z"/><path d="M18.44,30.15V30a1,1,0,0,1,2,0v.19a1,1,0,0,1-2,0Z"/><path d="M20.68,24.55l.19-.38c.57-1.15,2.3-.14,1.72,1l-.19.38C21.83,26.7,20.1,25.69,20.68,24.55Z"/><path d="M22.13,20.1a2.5,2.5,0,0,1-.84-1.86,1,1,0,0,1,2,0,.56.56,0,0,0,.25.44,1,1,0,0,1,0,1.41h0A1,1,0,0,1,22.13,20.1Z"/><path d="M20.32,16.07l-.54-1.71c-.38-1.23,1.55-1.76,1.93-.53l.54,1.71C22.63,16.77,20.7,17.3,20.32,16.07Z"/><path d="M19.44,12.48h-.19a1,1,0,0,1,0-2h.19a1,1,0,0,1,0,2Z"/><path d="M17.64,8l-.19-.38c-.58-1.15,1.15-2.16,1.72-1l.19.38C19.94,8.13,18.21,9.14,17.64,8Z"/><path d="M15.8,1.61V1.05a1,1,0,0,1,2,0v.56a1,1,0,0,1-2,0Z"/><path d="M14.34.05a1,1,0,1,1-1,1A1,1,0,0,1,14.34.05Z"/><path d="M14.34,8.17a1,1,0,1,1-1,1A1,1,0,0,1,14.34,8.17Z"/><path d="M17.13,13a2,2,0,0,1,1,1.64,1,1,0,1,1-2,0c0,.13.19.2,0,.08C15,14.15,16,12.43,17.13,13Z"/><path d="M17.37,18.19a1,1,0,1,1-1,1A1,1,0,0,1,17.37,18.19Z"/><path d="M18.12,21a1,1,0,1,1-1,1A1,1,0,0,1,18.12,21Z"/><path d="M19,24.54l.19.38c.58,1.15-1.15,2.16-1.72,1l-.19-.38C16.7,24.39,18.43,23.38,19,24.54Z"/><path d="M17.93,33.48a1,1,0,1,1-1,1A1,1,0,0,1,17.93,33.48Z"/><path d="M24.64,33.43l.57-.94a1,1,0,0,1,1.72,1l-.56,1a1,1,0,0,1-1.73-1Z"/><path d="M34.88,19.76v-.19a1,1,0,0,1,2,0v.19a1,1,0,0,1-2,0Z"/><path d="M24,10.25a1,1,0,1,1-1,1A1,1,0,0,1,24,10.25Z"/><path d="M22.85,20.48a1,1,0,1,1-1,1A1,1,0,0,1,22.85,20.48Z"/><path d="M18.24,27.58l.57.56c.93.89-.48,2.3-1.41,1.41L16.82,29C15.89,28.1,17.31,26.69,18.24,27.58Z"/></pattern></defs><path class="cls-2" d="M-18.09,659.72c-133.54-185.83-415.64-261.21-693.08-180-146.67,42.93-288.09,128.92-358.18,295.45-125.28,297.67,137.77,392.74,309.77,423,83.17,14.65,161.51,39.26,233.09,72.77,128.78,60.28,356.74,113.7,528.63-137.41C126.73,951.54,70.87,783.5-18.09,659.72Z"/><path class="cls-3" d="M237.58,82.33c-59.66,29.1-176.9,32.19-194.14,95s-24.35,172.77.16,224.84,88.66,50.64,223.48,17.81S421.24,313.51,464.78,241.8,361.9,21.68,237.58,82.33Z"/><path class="cls-4" d="M91.18,118.78s172.31-6.53,257.29,153.87c0,0-9.53-128.34,72-159.3"/><circle class="cls-5" cx="91.22" cy="118.79" r="79.54"/><path class="cls-6" d="M91.22,80.73,59.51,153.89l3,3,28.76-12.68L120,156.85l3-3Z"/><path class="cls-7" d="M91.22,39.23a79.57,79.57,0,1,0,79.53,79.61v0A79.57,79.57,0,0,0,91.22,39.23Zm0,148.49a69,69,0,1,1,69-69v0a69,69,0,0,1-69,69Z"/><path class="cls-4" d="M348.47,272.65s-111.31,40-131.35,134.69"/><path class="cls-8" d="M396.93,266.05c-1.11-2.69-2.23-5.37-3.39-8a23.91,23.91,0,0,0-4.14-7.15A7.64,7.64,0,0,0,387,249a10.33,10.33,0,0,0-3.17-.63,25,25,0,0,0-5-.13c-.65-.2-1.37-.45-2.09-.74a17.33,17.33,0,0,0,12.91-16.09v-.74a17.29,17.29,0,0,0-17.22-17.37h0a17,17,0,0,0-9,2.59,16.25,16.25,0,0,0-18.21,8.77A20.1,20.1,0,0,0,339,239.63v.77c.32,9.43,6.41,17,14.11,17.76a8,8,0,0,0-2.24,1.49c-2.35,2.27-2.74,5.87-3,9.15l-.19,2.43-4.08,1.45a.76.76,0,0,0-.45,1,.8.8,0,0,0,.27.36l3.9,2.78v.69a3.17,3.17,0,0,0,.07.79,5.51,5.51,0,0,0-1.5,2.15,10,10,0,0,0-.36,3.93l.15,3.39a26.67,26.67,0,0,0,1,7.53c.51,1.51,2.72,5.14,4.31,5.16-1.47,6.68-1.86,20.76-1.86,20.76-.18.18.33.35,1.22.49.87,6.7,3.72,25.49,8.78,33.76a69.65,69.65,0,0,1,1.91,8.2s1.44,17.86,3.35,23.16c1.63,4.52,2.91,15.66,3.27,18.89a1.84,1.84,0,0,0-1.35,1.38c-1,2.89-7.17,7.29-7.17,7.29a29.84,29.84,0,0,0-5.37,3.43c-1.95,1.76-1.88,3.35,6.8,2.35,16.75-1.93,19.61-7.28,19.61-7.28s-.27-.9-.67-2.06a22.52,22.52,0,0,0-2.19-5.18c-.25-.23-.49.15-.78.76a103.91,103.91,0,0,1-1.14-23.44s.47-8.2-1.92-14a26.64,26.64,0,0,1,0-9.17c1-3.86-3.82-22.68-3.82-22.68L367,323.24a4,4,0,0,1,.76,1.61l.07.28.08.4a.72.72,0,0,0,.19.38c1.87,7.77,7,29.29,7,32.44,0,3.86,4.78,13.51,4.78,13.51s1.91,15.93,5.26,22.19c2.55,4.77,2.61,11.76,2.49,14.84h0s-.57,4-1.53,4.93a12,12,0,0,0-1.81,3.14l-.11.24s-1.43,2.9-.47,3.38A23.53,23.53,0,0,0,395.13,422s1.92-2.43,1.92-3.38a16.5,16.5,0,0,0-.22-1.72c-.35-2.28-1-5.88-1-5.91.4-1.56-1.22-5.88-1.22-5.88l-.48-13.51a62.44,62.44,0,0,0-3.35-27s-2.43-8.68-1.91-11.09-1-28-1-28l-.14-.36a28.15,28.15,0,0,1,.14-5.43c.48-5.79-1.43-17.85-1.91-18.33a15.44,15.44,0,0,1-.68-4c.11-1,.43-4,.88-7.62a136.09,136.09,0,0,0,14.11-1.22,1.76,1.76,0,0,0,1.21-.48,1.73,1.73,0,0,0,.28-1C402.34,279.83,399.68,272.77,396.93,266.05Zm-9.63,15.3c.5-3.46,1-6.81,1.57-9.3l.07.22a66,66,0,0,1,2.3,7.65A26.1,26.1,0,0,1,387.3,281.35Z"/><path class="cls-9" d="M350.12,320.42s2.87,25.77,9.07,35.78a68.64,68.64,0,0,1,1.9,8.11s1.44,17.65,3.34,22.89,3.34,19.57,3.34,19.57,6.68,7.62,9.07,1.43a100.15,100.15,0,0,1-1.43-24.81s.47-8.11-1.91-13.84a26,26,0,0,1,0-9.05c.95-3.82-3.82-22.42-3.82-22.42l-3.82-18.6Z"/><path class="cls-10" d="M380.18,413s-2.87,5.24-19.56,7.15c-8.66,1-8.73-.58-6.77-2.33a30.17,30.17,0,0,1,5.34-3.4s6.2-4.28,7.15-7.15,4.3-.47,4.3-.47c4.77,7.15,5.72-1.92,6.67-1a21.62,21.62,0,0,1,2.2,5.11C379.91,412.07,380.18,413,380.18,413Z"/><path class="cls-7" d="M380.18,413s-2.87,5.24-19.56,7.15c-8.66,1-8.73-.58-6.77-2.33,1.36.86,4.1,1.21,9.62-1,7.95-3.25,13.72-5.13,16-5.86C379.91,412.07,380.18,413,380.18,413Z"/><path class="cls-7" d="M375.41,383.39s.47-8.11-1.91-13.83a26,26,0,0,1,0-9.06c.95-3.82-3.82-22.42-3.82-22.42l-3.82-18.6-3.3.19,3.78,18.41s4.77,18.6,3.82,22.42a26,26,0,0,0,0,9.05c2.43,5.73,1.91,13.84,1.91,13.84a100.63,100.63,0,0,0,1.43,24.81,4.22,4.22,0,0,1-1.38,2c1.77.8,3.64.76,4.72-2A100.15,100.15,0,0,1,375.41,383.39Z"/><path class="cls-5" d="M372.3,215.72a17.07,17.07,0,0,0-9,2.56,16.2,16.2,0,0,0-18.2,8.68,19.74,19.74,0,0,0-6.18,14.76c0,10.15,6.83,18.37,15.25,18.37,6.07,0,11.39-4.33,13.83-10.58a16.43,16.43,0,0,0,4.3.56,17.18,17.18,0,0,0,0-34.35Z"/><path class="cls-9" d="M386.38,322.81l1.43,3.81s1.43,25.29.95,27.68,1.91,10.92,1.91,10.92a60.94,60.94,0,0,1,3.34,26.7l.48,13.36s1.9,5.24.95,6.2-8.14-.85-8.14-.85,1-10-2.43-16.22-5.24-21.94-5.24-21.94-4.77-9.54-4.77-13.35-7.64-34.83-7.64-34.83Z"/><path class="cls-5" d="M349.16,322.34s.49-17.18,2.43-22.42a35.85,35.85,0,0,0,2.13-7.61s28.87,5.22,31.26,3.31c0,0,.48,6.68,1,7.15s2.43,12.41,1.91,18.14,0,5.71,0,5.71-19.57,2.87-20,0-1.91-2.85-1.91-2.85S348.22,323.24,349.16,322.34Z"/><g class="cls-11"><path d="M364.91,322.34s-12.07-.33-15.71-1v1c-.95,1,16.7,1.43,16.7,1.43a1.24,1.24,0,0,1,.66.27C365.91,322.34,364.91,322.34,364.91,322.34Z"/><path d="M385.9,302.77c-.48-.47-.95-7.15-.95-7.15a2,2,0,0,1-.82.3c.17,2,.5,5.11.82,5.42s2.42,12.41,1.9,18.14,0,5.71,0,5.71-15.47,2.27-19.23.75a5,5,0,0,0,.15.68c.47,2.87,20,0,20,0s-.49,0,0-5.71S386.38,303.26,385.9,302.77Z"/><path class="cls-12" d="M364.91,322.34s-12.07-.33-15.71-1v1c-.95,1,16.7,1.43,16.7,1.43a1.24,1.24,0,0,1,.66.27C365.91,322.34,364.91,322.34,364.91,322.34Z"/><path class="cls-12" d="M385.9,302.77c-.48-.47-.95-7.15-.95-7.15a2,2,0,0,1-.82.3c.17,2,.5,5.11.82,5.42s2.42,12.41,1.9,18.14,0,5.71,0,5.71-15.47,2.27-19.23.75a5,5,0,0,0,.15.68c.47,2.87,20,0,20,0s-.49,0,0-5.71S386.38,303.26,385.9,302.77Z"/></g><path class="cls-9" d="M370.19,245.78a6.33,6.33,0,0,0,1.82,2.35,4,4,0,0,0,1.71.74c-1.07.62-2.24,1.08-3.3,1.7a59.12,59.12,0,0,0-4.86,3.64,9.87,9.87,0,0,1-5.57,2.16,6.83,6.83,0,0,0,.78-6.78,6.2,6.2,0,0,1-.85-2.36c0-1.37,1.21-2.43,2.34-3.15.91-.62,1.85-1.22,2.79-1.81.74-.46,1.86-1.43,2.79-1.4s1.05.86,1.22,1.71A13.54,13.54,0,0,0,370.19,245.78Z"/><path class="cls-7" d="M370.19,245.78a6.33,6.33,0,0,0,1.82,2.35,4,4,0,0,0,1.71.74c-1.07.62-2.24,1.08-3.3,1.7a59.12,59.12,0,0,0-4.86,3.64,9.87,9.87,0,0,1-5.57,2.16,6.83,6.83,0,0,0,.78-6.78,6.2,6.2,0,0,1-.85-2.36c0-1.37,1.21-2.43,2.34-3.15.91-.62,1.85-1.22,2.79-1.81.74-.46,1.86-1.43,2.79-1.4s1.05.86,1.22,1.71A13.54,13.54,0,0,0,370.19,245.78Z"/><circle class="cls-9" cx="381.36" cy="262.95" r="10.97"/><path class="cls-10" d="M396.86,418.69c0,1-1.9,3.34-1.9,3.34a23.66,23.66,0,0,1-11.45-1.44c-1-.47.48-3.33.48-3.33l.11-.23a11.23,11.23,0,0,1,1.8-3.11c1-.95,1.52-4.86,1.52-4.86,3-4.85,8.22,2.1,8.22,2.1s.67,3.64,1,5.85A16.55,16.55,0,0,1,396.86,418.69Z"/><path class="cls-7" d="M396.86,418.69c0,1-1.9,3.34-1.9,3.34a23.66,23.66,0,0,1-11.45-1.44c-1-.47.48-3.33.48-3.33l.11-.23a23,23,0,0,0,10.39,2.13l2.17-2.17C396.78,417.8,396.86,418.45,396.86,418.69Z"/><circle class="cls-9" cx="359.42" cy="240.05" r="10.73"/><path class="cls-9" d="M350.77,261.51c-2.36,2.24-2.75,5.8-3,9l-.36,4.74a23.59,23.59,0,0,0-.09,3.85c0,.79.19,1.59.27,2.43s.09,1.89.11,2.85v7a8.27,8.27,0,0,0,.77,4.21,2.88,2.88,0,0,0,3.65,1.31,4.15,4.15,0,0,0,1.5-2.33,36.5,36.5,0,0,0,2.43-8.89c.09-1.05.11-2.11.2-3.16s.28-2.16.44-3.23c.68-4.47,1-9,1.29-13.49.08-1.33,1.28-6.59-.46-7.17-.85-.28-2.61.59-3.43.89A9.44,9.44,0,0,0,350.77,261.51Z"/><path class="cls-7" d="M350.77,261.51c-2.36,2.24-2.75,5.8-3,9l-.36,4.74a23.59,23.59,0,0,0-.09,3.85c0,.79.19,1.59.27,2.43s.09,1.89.11,2.85v7a8.27,8.27,0,0,0,.77,4.21,2.88,2.88,0,0,0,3.65,1.31,4.15,4.15,0,0,0,1.5-2.33,36.5,36.5,0,0,0,2.43-8.89c.09-1.05.11-2.11.2-3.16s.28-2.16.44-3.23c.68-4.47,1-9,1.29-13.49.08-1.33,1.28-6.59-.46-7.17-.85-.28-2.61.59-3.43.89A9.44,9.44,0,0,0,350.77,261.51Z"/><path class="cls-6" d="M373,247s-8.1,6.21-12.87,7.64c0,0-2.83,3.23-3.32,4s-1.45,9.35-2.43,11.27-3.33,6.2,0,10.49c0,0,.95,4.29.48,5.72s-2.21,6.68-.63,6.92,6.36,3.57,10.64,2.62,20.28,3.65,20.28,3.65,2.65-24.58,4.57-28.93l-4.3-1.43s-11.92-7.15-4.77-18.12C380.65,250.79,374,249.36,373,247Z"/><path class="cls-5" d="M343.41,275.69l9.86,7a.72.72,0,0,0,.86,0l2.67-2a.76.76,0,0,0,.08-1.06l-.08-.08-7.59-6.74a.74.74,0,0,0-.74-.14l-4.87,1.75a.73.73,0,0,0-.45.94A.71.71,0,0,0,343.41,275.69Z"/><path class="cls-9" d="M346.72,296.72a26.78,26.78,0,0,1-1-7.44l-.14-3.37a9.62,9.62,0,0,1,.35-3.88,6.35,6.35,0,0,1,4.09-3.58,14.14,14.14,0,0,1,5.57-.4,1.52,1.52,0,0,1,.72.19,1.34,1.34,0,0,1,.38.66,4.38,4.38,0,0,1,.22,3.51,3.69,3.69,0,0,1-1.11,1.15c-1.33.95-2.87,1.58-4.12,2.61a1.54,1.54,0,0,0-.56.7,1.67,1.67,0,0,0,0,.77,13,13,0,0,0,.63,1.95,2,2,0,0,0,.55.83c.23.19.53.26.78.45.52.42,1.61,1,1.55,1.65-.18,2.42-1.64,5.14-2.21,7.55C351.3,304.76,347.43,298.77,346.72,296.72Z"/><g class="cls-11"><path d="M362.05,295.62h-.26a7.8,7.8,0,0,0,3.12,0h.3A11.15,11.15,0,0,0,362.05,295.62Z"/><path d="M387.09,269.63c-1.71,3.84-4.23,24.68-4.68,28.82,1.67.44,2.78.76,2.78.76s2.62-24.52,4.54-28.87Z"/></g><path class="cls-9" d="M381.74,263.29a3.66,3.66,0,0,0,1.57,2.37,21.71,21.71,0,0,1,2.78,2.81,19.73,19.73,0,0,1,2.75,5.53,68.44,68.44,0,0,1,2.3,7.55c-6.07,2.81-13,2.68-19.42,4.53a15.61,15.61,0,0,0-7.29,4.31,10.05,10.05,0,0,0-2.68,7.9,1,1,0,0,0,.15.48,1,1,0,0,0,.85.34,7.25,7.25,0,0,0,4.45-1.53,21.61,21.61,0,0,0,3.41-3.35,5.49,5.49,0,0,1,2.43-1.8c3.51-1.07,7.28-1,10.92-1.07a136.48,136.48,0,0,0,16.28-1.28,1.32,1.32,0,0,0,1.46-1.15,1.61,1.61,0,0,0,0-.31c.53-7.16-2.13-14.15-4.86-20.79-1.09-2.66-2.22-5.31-3.37-7.95a23.52,23.52,0,0,0-4.13-7.06,7.17,7.17,0,0,0-2.43-1.8,10.28,10.28,0,0,0-3.25-.61,23.19,23.19,0,0,0-5.33-.1,11.79,11.79,0,0,0-.51,2.76c.1,3.28,1.53,6.35,2.94,9.31C380.94,262.83,381.46,262.85,381.74,263.29Z"/><path class="cls-13" d="M362.31,269.43a9,9,0,0,0-1.22,4.64,6.39,6.39,0,0,0,.31,1.89,6.11,6.11,0,0,0,3.87,3.64"/><path class="cls-5" d="M368.49,229.56a5.5,5.5,0,0,0-1.76.28c-1.59-2.43-5.33-4.1-9.71-4.1-5.81,0-10.5,3-10.5,6.68s4.69,6.68,10.5,6.68a14.75,14.75,0,0,0,6.3-1.34,5.71,5.71,0,1,0,5.14-8.2Z"/><path class="cls-7" d="M369,239.57a5.71,5.71,0,0,1-5.15-3.24,14.68,14.68,0,0,1-6.3,1.34c-5.79,0-10.48-3-10.48-6.68a3.75,3.75,0,0,1,0-.67,4.55,4.55,0,0,0-.54,2.1c0,3.65,4.7,6.68,10.5,6.68a14.72,14.72,0,0,0,6.3-1.34,5.72,5.72,0,0,0,10.77-1.42A5.67,5.67,0,0,1,369,239.57Z"/><path class="cls-7" d="M345.1,229.78a16.19,16.19,0,0,1,18.2-8.68,17.17,17.17,0,0,1,26.12,13.18v-1.43a17.16,17.16,0,0,0-26.18-14.57A16.2,16.2,0,0,0,345,227a19.77,19.77,0,0,0-6.18,14.76v1.43A19.41,19.41,0,0,1,345.1,229.78Z"/><circle class="cls-5" cx="420.46" cy="113.35" r="79.54"/><path class="cls-6" d="M454.61,133.86c-2.77-2.76-9.43-6.94-12.74-8.5-3.81-1.83-5.21-1.8-7.91.15-2.24,1.59-3.7,3.13-6.27,2.56s-7.69-4.41-12.63-9.34-8.78-10-9.33-12.62,1-4,2.57-6.29c1.94-2.69,2-4.09.15-7.9-1.59-3.31-5.72-10-8.51-12.74S396.54,77,395,77.59A28.61,28.61,0,0,0,390.5,80c-2.77,1.85-4.32,3.4-5.41,5.72s-2.32,6.64,4,17.93a99.79,99.79,0,0,0,17.59,23.45h0a100.25,100.25,0,0,0,23.52,17.61c11.29,6.37,15.61,5.1,17.93,4s3.87-2.62,5.72-5.41a28.56,28.56,0,0,0,2.38-4.51C456.78,137.26,457.4,136.64,454.61,133.86Z"/><path class="cls-7" d="M420.46,33.82A79.57,79.57,0,1,0,500,113.43v-.08A79.57,79.57,0,0,0,420.46,33.82Zm0,148.5a69,69,0,1,1,69-69h0a69,69,0,0,1-69,69Z"/><circle class="cls-5" cx="217.09" cy="410.59" r="79.54"/><path class="cls-6" d="M262.32,386.56l-23.81,24.22a.43.43,0,0,0,0,.61v0l16.71,17.76a2.89,2.89,0,0,1,0,4.08,2.85,2.85,0,0,1-2,.83,2.89,2.89,0,0,1-2-.84l-16.62-17.71a.47.47,0,0,0-.64,0l-4,4.09A17.79,17.79,0,0,1,217.11,425a18.17,18.17,0,0,1-13-5.51l-3.89-4a.45.45,0,0,0-.64,0l-16.58,17.66a2.87,2.87,0,0,1-4.06,0h0a2.86,2.86,0,0,1,0-4.05v0l16.65-17.72a.5.5,0,0,0,0-.63l-23.82-24.22a.43.43,0,0,0-.62,0,.48.48,0,0,0-.13.32v48.48a7.1,7.1,0,0,0,7.08,7.07H256a7.1,7.1,0,0,0,7.08-7.07V386.87a.44.44,0,0,0-.77-.31Z"/><path class="cls-7" d="M216.09,331.05a79.58,79.58,0,1,0,79.53,79.62v-.08A79.59,79.59,0,0,0,216.09,331.05Zm0,148.5a69,69,0,1,1,69-69h0A69,69,0,0,1,216.09,479.55Z"/><rect class="cls-5" x="108.57" y="290.74" width="1.68" height="9.55"/><rect class="cls-5" x="104.64" y="294.67" width="9.55" height="1.68"/><path class="cls-5" d="M285.76,97.49a2.06,2.06,0,0,1-1.15-2.5,1.57,1.57,0,0,0,0-.23h0a1,1,0,0,0-1.86-.68h0a.82.82,0,0,0-.12.2,2.07,2.07,0,0,1-2.49,1.15,1.06,1.06,0,0,0-.23-.05h0a1,1,0,0,0-1.11,1,1,1,0,0,0,.43.91h0a.82.82,0,0,0,.2.12,2.07,2.07,0,0,1,1.15,2.5.85.85,0,0,0,0,.23h0a1,1,0,0,0,.94,1.11,1,1,0,0,0,.93-.43h0a.88.88,0,0,0,.12-.21,2.07,2.07,0,0,1,2.49-1.15,1.06,1.06,0,0,0,.23,0h0a1,1,0,0,0,1.11-1,1.06,1.06,0,0,0-.42-.9h0A.94.94,0,0,0,285.76,97.49Z"/><path class="cls-5" d="M191.24,39.3a2.08,2.08,0,0,1-1.15-2.5,1,1,0,0,0,0-.23h0a1,1,0,0,0-1.86-.69h0a.82.82,0,0,0-.12.2,2.07,2.07,0,0,1-2.5,1.15.85.85,0,0,0-.23,0h0a1,1,0,0,0-.68,1.86h0a1.32,1.32,0,0,0,.2.12,2.06,2.06,0,0,1,1.15,2.49,1,1,0,0,0,0,.23h0a1,1,0,0,0,1,1.1,1,1,0,0,0,.9-.41h0a1.28,1.28,0,0,0,.11-.2,2.07,2.07,0,0,1,2.5-1.15.85.85,0,0,0,.23,0h0a1,1,0,0,0,1.1-1,1,1,0,0,0-.41-.9h0A.84.84,0,0,0,191.24,39.3Z"/><path class="cls-5" d="M66.42,399.05a2.07,2.07,0,0,1-1.15-2.49,1.06,1.06,0,0,0,0-.23h0a1,1,0,0,0-1-1.11,1.06,1.06,0,0,0-.9.42h0a.82.82,0,0,0-.12.2A2.06,2.06,0,0,1,60.85,397a1,1,0,0,0-.24,0h0a1,1,0,0,0-.68,1.86h0l.2.11a2.07,2.07,0,0,1,1.15,2.5.86.86,0,0,0-.05.23h0a1,1,0,0,0,1,1.1,1,1,0,0,0,.9-.41h0a1.28,1.28,0,0,0,.11-.2,2.06,2.06,0,0,1,2.5-1.15l.23,0h0a1,1,0,0,0,1.1-1,1,1,0,0,0-.41-.9h0A.88.88,0,0,0,66.42,399.05Z"/><circle class="cls-5" cx="238.79" cy="213.34" r="3.37"/><circle class="cls-5" cx="438.65" cy="212.65" r="3.37"/><circle class="cls-5" cx="456.7" cy="334.43" r="3.37"/><path class="cls-6" d="M217.09,419.23a12.07,12.07,0,0,0,8.69-3.58l34.68-35.31a6.92,6.92,0,0,0-4.37-1.59H178.15a6.85,6.85,0,0,0-4.37,1.59l34.69,35.31A12,12,0,0,0,217.09,419.23Z"/></svg>