<svg width="85" height="66" viewBox="0 0 85 66" fill="none" xmlns="http://www.w3.org/2000/svg">
<circle cx="30" cy="34" r="30" fill="#FF7300"/>
<circle cx="74" cy="15" r="11" fill="#9F9F9F"/>
<circle cx="71" cy="38" r="8" fill="#9F9F9F"/>
<circle cx="66" cy="57" r="8" fill="#9F9F9F"/>
<circle cx="6" cy="5" r="5" fill="#9F9F9F"/>
<circle cx="6" cy="63" r="3" fill="#9F9F9F"/>
<circle cx="57" cy="6" r="3" fill="#9F9F9F"/>
<path d="M27.3109 33.724C27.3109 34.1907 27.0542 34.515 26.5409 34.697C26.8209 34.7763 27.0472 34.907 27.2199 35.089C27.3925 35.271 27.4789 35.5043 27.4789 35.789C27.4789 36.1763 27.3319 36.489 27.0379 36.727C26.7439 36.9603 26.3565 37.077 25.8759 37.077C25.3952 37.077 24.9845 36.9533 24.6439 36.706C24.3079 36.454 24.1399 36.1017 24.1399 35.649H24.7139C24.7232 35.9477 24.8329 36.1763 25.0429 36.335C25.2575 36.4937 25.5282 36.573 25.8549 36.573C26.1815 36.573 26.4335 36.496 26.6109 36.342C26.7929 36.1833 26.8839 35.9897 26.8839 35.761C26.8839 35.5277 26.7975 35.3387 26.6249 35.194C26.4522 35.0447 26.1722 34.97 25.7849 34.97H25.2809V34.529H25.6239C25.9599 34.529 26.2259 34.4637 26.4219 34.333C26.6179 34.1977 26.7159 34.018 26.7159 33.794C26.7159 33.57 26.6365 33.3857 26.4779 33.241C26.3192 33.0963 26.1092 33.024 25.8479 33.024C25.5865 33.024 25.3672 33.0707 25.1899 33.164C25.0172 33.2527 24.9005 33.4207 24.8399 33.668H24.2659C24.3172 33.2807 24.4782 32.9937 24.7489 32.807C25.0195 32.6157 25.3672 32.52 25.7919 32.52C26.2212 32.52 26.5805 32.6343 26.8699 32.863C27.1639 33.087 27.3109 33.374 27.3109 33.724ZM29.9976 32.52C30.5296 32.52 30.9496 32.716 31.2576 33.108C31.5656 33.5 31.7196 34.0647 31.7196 34.802C31.7196 35.5347 31.5656 36.097 31.2576 36.489C30.9496 36.881 30.5296 37.077 29.9976 37.077C29.4656 37.077 29.0433 36.8833 28.7306 36.496C28.4226 36.1087 28.2686 35.544 28.2686 34.802C28.2686 34.0553 28.4226 33.4883 28.7306 33.101C29.0433 32.7137 29.4656 32.52 29.9976 32.52ZM31.1456 34.802C31.1456 34.228 31.0476 33.7893 30.8516 33.486C30.6556 33.178 30.3686 33.024 29.9906 33.024C29.6173 33.024 29.3326 33.178 29.1366 33.486C28.9406 33.7893 28.8426 34.228 28.8426 34.802C28.8426 35.3713 28.9406 35.81 29.1366 36.118C29.3326 36.4213 29.6173 36.573 29.9906 36.573C30.3686 36.573 30.6556 36.4213 30.8516 36.118C31.0476 35.81 31.1456 35.3713 31.1456 34.802ZM34.1539 32.52C34.6859 32.52 35.1059 32.716 35.4139 33.108C35.7219 33.5 35.8759 34.0647 35.8759 34.802C35.8759 35.5347 35.7219 36.097 35.4139 36.489C35.1059 36.881 34.6859 37.077 34.1539 37.077C33.6219 37.077 33.1995 36.8833 32.8869 36.496C32.5789 36.1087 32.4249 35.544 32.4249 34.802C32.4249 34.0553 32.5789 33.4883 32.8869 33.101C33.1995 32.7137 33.6219 32.52 34.1539 32.52ZM35.3019 34.802C35.3019 34.228 35.2039 33.7893 35.0079 33.486C34.8119 33.178 34.5249 33.024 34.1469 33.024C33.7735 33.024 33.4889 33.178 33.2929 33.486C33.0969 33.7893 32.9989 34.228 32.9989 34.802C32.9989 35.3713 33.0969 35.81 33.2929 36.118C33.4889 36.4213 33.7735 36.573 34.1469 36.573C34.5249 36.573 34.8119 36.4213 35.0079 36.118C35.2039 35.81 35.3019 35.3713 35.3019 34.802Z" fill="white"/>
</svg>
